<?xml version="1.0" standalone="no"?>
<!DOCTYPE svg PUBLIC "-//W3C//DTD SVG 20010904//EN"
 "http://www.w3.org/TR/2001/REC-SVG-20010904/DTD/svg10.dtd">
<svg version="1.0" xmlns="http://www.w3.org/2000/svg"
 width="3375.000000pt" height="4219.000000pt" viewBox="0 0 3375.000000 4219.000000"
 preserveAspectRatio="xMidYMid meet">

<g transform="translate(0.000000,4219.000000) scale(0.100000,-0.100000)"
fill="#000000" stroke="none">
<path d="M18457 40437 c-12 -4 -25 -13 -29 -20 -12 -19 -10 -14505 2 -14512
15 -10 142 109 291 273 73 81 190 206 260 277 69 72 156 170 193 218 38 49 79
92 92 97 14 6 24 18 24 29 0 26 26 51 61 58 17 3 71 44 136 105 304 279 930
766 1118 867 221 120 537 244 609 239 57 -4 66 -26 66 -170 0 -105 2 -120 20
-138 58 -58 178 28 225 159 11 31 15 83 15 182 0 132 1 139 20 139 21 0 52
-39 157 -195 93 -138 129 -165 222 -165 35 0 53 -5 66 -19 16 -18 16 -28 5
-125 -8 -64 -10 -143 -6 -203 4 -54 11 -258 16 -453 19 -736 30 -1038 40
-1120 5 -47 10 -155 10 -240 0 -85 5 -209 12 -275 6 -66 11 -155 12 -197 2
-107 4 -108 163 -119 70 -5 169 -14 220 -19 97 -12 154 -7 191 16 l22 14 0
1213 c0 1041 2 1215 14 1233 14 20 28 21 247 28 128 4 318 13 423 21 419 32
534 37 851 44 182 3 485 2 675 -2 211 -5 528 -4 815 3 259 6 740 15 1070 20
1166 19 1261 21 1344 30 46 5 88 7 92 4 5 -3 9 -126 9 -275 0 -231 -2 -269
-15 -269 -8 0 -108 27 -222 59 -465 132 -697 165 -1128 159 -237 -3 -286 -7
-319 -21 -27 -12 -36 -21 -30 -27 6 -6 109 -15 230 -20 120 -5 270 -16 332
-25 784 -107 1606 -426 2232 -864 74 -52 163 -120 197 -152 33 -31 78 -69 100
-85 74 -55 293 -288 377 -403 62 -84 257 -392 290 -458 14 -29 26 -61 26 -73
0 -24 15 -27 24 -4 8 21 8 7839 -1 7899 -8 63 -42 85 -130 85 -72 0 -90 5
-104 32 -6 11 -21 83 -35 160 -25 146 -31 288 -14 332 10 28 7 27 173 51 117
17 124 21 118 58 -1 4 -1 1469 -1 3256 0 3082 -1 3250 -17 3270 l-18 21 -5908
3 c-3250 1 -5918 -2 -5930 -6z m10860 -589 c16 -16 15 -28 -8 -200 -21 -159
-27 -186 -47 -206 l-23 -24 -239 4 c-211 3 -241 5 -257 20 -15 15 -17 37 -15
165 2 156 9 190 44 212 12 7 91 19 187 27 91 8 173 16 181 18 8 3 48 4 87 3
53 -2 77 -7 90 -19z m-4132 -805 c46 -309 127 -537 263 -742 61 -93 61 -99 1
-138 -132 -85 -118 -114 53 -110 106 2 115 -2 203 -78 33 -29 98 -76 145 -104
47 -28 92 -55 100 -60 11 -6 -1 -13 -45 -25 -180 -51 -244 -74 -294 -106 -58
-38 -120 -102 -104 -107 5 -2 35 6 68 17 32 11 119 32 192 46 76 14 168 39
211 57 72 30 84 32 192 31 94 -1 131 -6 203 -28 107 -32 117 -32 192 -1 145
60 254 6 301 -150 37 -122 28 -234 -28 -347 -46 -93 -187 -230 -297 -288 -74
-39 -87 -50 -103 -88 -13 -30 -18 -55 -14 -80 4 -20 13 -116 21 -212 18 -206
27 -264 61 -368 41 -125 86 -194 215 -329 66 -67 119 -126 119 -130 0 -5 -67
-32 -148 -62 -274 -100 -515 -226 -703 -367 -177 -134 -380 -371 -460 -536
-13 -27 -26 -48 -30 -48 -15 0 -21 138 -11 235 12 111 44 226 67 245 12 10 24
11 50 2 19 -5 35 -7 35 -3 0 3 -20 51 -44 106 -58 132 -206 527 -206 550 0 16
6 17 53 9 85 -14 188 -10 224 9 49 26 108 91 183 202 77 115 205 326 244 402
49 98 32 97 -76 -3 -152 -141 -299 -243 -448 -311 -222 -103 -540 -174 -635
-143 -58 19 -97 61 -214 229 -61 86 -130 183 -155 215 -95 126 -177 316 -216
504 -39 181 -36 446 11 1067 18 233 56 383 137 540 86 165 325 435 467 527 63
41 163 86 191 87 7 1 18 -46 29 -116z m-2432 -875 c60 -67 157 -229 157 -263
0 -39 -16 -60 -133 -177 -136 -136 -149 -143 -199 -100 -28 23 -22 43 35 123
29 41 56 79 60 86 8 13 -111 55 -213 74 -98 19 -347 16 -460 -4 -212 -39 -449
-129 -595 -227 -100 -67 -238 -176 -289 -228 -37 -39 -37 -41 -18 -51 11 -6
37 -11 57 -11 45 0 92 -23 100 -51 8 -25 -11 -75 -32 -83 -21 -9 -226 -26
-304 -26 -78 0 -115 22 -124 73 -5 31 45 239 92 376 23 70 60 100 99 82 26
-12 27 -13 21 -86 -3 -42 -1 -77 4 -81 5 -3 69 42 143 100 158 125 274 199
414 267 129 63 337 132 467 154 160 28 410 23 563 -11 22 -4 23 -3 17 39 -5
35 -3 48 11 61 29 30 82 15 127 -36z m-33 -1060 c22 -50 24 -71 31 -348 9
-361 31 -514 134 -910 19 -76 22 -97 12 -108 -9 -8 -47 -13 -108 -14 -107 -2
-140 10 -186 67 -41 51 -51 90 -45 175 3 48 -1 103 -12 155 -25 124 -27 640
-2 750 31 141 103 285 141 285 7 0 23 -24 35 -52z m-1192 -385 c39 -56 61
-111 102 -263 52 -194 99 -321 158 -430 l45 -85 1 -140 c1 -135 2 -142 32
-205 42 -88 175 -265 215 -286 27 -14 59 -16 204 -12 168 3 173 4 212 31 45
31 56 33 73 12 9 -11 5 -25 -25 -73 -51 -83 -75 -167 -75 -261 0 -90 13 -117
52 -108 25 7 25 8 30 139 4 104 10 145 27 190 35 90 51 105 123 113 72 8 88
18 88 51 0 28 -35 54 -71 54 -56 0 -226 41 -278 68 -70 34 -83 54 -55 82 23
23 233 63 507 96 216 26 232 15 222 -143 -9 -145 -96 -406 -187 -561 -18 -31
-72 -97 -120 -146 -103 -104 -110 -130 -45 -155 36 -14 115 -176 382 -786 301
-688 340 -775 457 -1020 106 -221 195 -392 347 -670 78 -143 127 -262 191
-465 37 -115 42 -145 41 -216 0 -63 3 -87 15 -98 21 -21 36 -20 68 5 72 56 77
147 22 368 -51 202 -96 309 -242 573 -87 158 -128 244 -131 272 -3 27 18 159
62 379 59 293 70 337 86 337 27 0 147 -106 169 -150 26 -51 26 -147 0 -231
-51 -168 -63 -241 -63 -379 0 -197 39 -328 144 -491 146 -226 220 -431 249
-689 5 -52 15 -129 21 -171 13 -92 13 -94 -123 -289 -105 -152 -210 -281 -262
-323 -37 -28 -107 -47 -180 -47 -22 0 -100 -12 -171 -27 -188 -39 -194 -37
-355 126 -175 176 -349 406 -483 636 -111 192 -265 546 -356 822 -27 81 -56
162 -64 178 -48 93 -291 1230 -323 1510 -8 72 -26 184 -39 250 -13 66 -29 153
-35 192 -12 71 -11 74 14 103 14 17 23 36 20 43 -2 7 -27 28 -55 47 -68 46
-171 156 -230 247 -59 91 -163 293 -217 425 -111 266 -213 683 -258 1052 -23
181 -16 496 11 526 24 26 30 25 53 -7z m950 -455 c18 -24 23 -76 26 -272 3
-177 5 -198 25 -237 12 -23 20 -43 19 -45 -2 -1 -41 -8 -87 -13 -104 -13 -139
-33 -170 -94 -18 -37 -28 -47 -48 -47 -19 0 -29 10 -46 48 -29 62 -28 179 3
357 24 136 41 176 104 244 53 57 149 89 174 59z m-314 -104 c21 -8 20 -33 -5
-124 -25 -97 -49 -254 -49 -327 0 -96 28 -177 92 -270 27 -41 28 -42 9 -53
-49 -26 -106 -5 -165 60 -125 138 -177 311 -147 485 22 126 62 171 188 214 32
11 59 20 60 21 1 0 8 -3 17 -6z m4803 -526 c61 -26 128 -86 265 -236 380 -415
626 -762 875 -1232 126 -236 298 -652 392 -944 83 -259 201 -748 201 -833 0
-20 -38 -151 -84 -292 -243 -738 -393 -1352 -570 -2336 -31 -170 -59 -321 -62
-334 -5 -22 -8 -19 -37 27 -84 133 -189 157 -770 178 -110 4 -193 12 -201 18
-53 41 -46 1007 8 1271 19 93 31 249 18 241 -17 -10 -43 -122 -51 -223 -9
-101 -37 -210 -116 -446 -53 -161 -164 -445 -204 -525 -62 -122 -171 -226
-309 -294 l-67 -33 -640 -6 c-587 -6 -884 -16 -1745 -59 -107 -5 -267 -10
-355 -10 -211 0 -324 -13 -374 -41 -31 -17 -54 -47 -116 -153 -43 -72 -148
-237 -233 -366 -158 -240 -222 -315 -391 -460 -41 -35 -57 -58 -71 -100 -23
-64 -26 -181 -8 -276 8 -47 9 -80 1 -122 -15 -79 -53 -202 -63 -202 -10 0
-235 424 -255 481 -32 90 -15 168 91 414 75 175 81 195 65 195 -12 0 -107
-168 -132 -233 -11 -29 -30 -72 -43 -97 -77 -145 -73 -276 13 -433 34 -62 111
-230 111 -243 0 -14 -50 0 -67 19 -32 35 -257 379 -270 412 -18 47 -15 122 12
235 14 58 25 117 25 132 0 14 11 48 24 75 21 43 51 171 42 180 -6 6 -55 -105
-70 -157 -121 -413 -123 -433 -57 -555 23 -44 71 -124 107 -177 35 -53 64
-101 64 -107 0 -20 -36 -11 -76 17 -45 33 -110 123 -224 313 -71 119 -80 138
-80 183 0 41 45 206 115 421 l7 20 -17 -20 c-41 -48 -107 -208 -127 -308 -19
-93 -20 -113 -9 -222 12 -133 6 -220 -29 -374 -23 -103 -29 -118 -59 -145 -30
-28 -55 -5 -47 44 9 58 -11 304 -39 480 -23 143 -25 175 -16 241 12 90 39 162
87 235 34 51 260 326 447 544 137 159 439 456 553 542 232 177 468 293 724
358 141 35 616 101 1125 155 400 43 713 84 980 131 110 19 322 55 470 79 334
56 312 51 330 79 18 26 11 52 -16 66 -20 11 -216 -3 -281 -20 -22 -7 -45 -7
-60 -1 l-24 9 27 229 c50 410 80 604 134 878 29 149 59 304 65 345 7 41 18 86
25 100 7 14 22 70 34 125 46 212 43 210 201 116 178 -107 499 -261 644 -310
71 -23 191 -56 268 -71 77 -16 144 -32 149 -37 14 -14 13 -65 -4 -123 -21 -76
-30 -130 -19 -130 15 0 42 70 51 133 5 34 21 101 35 149 15 48 38 144 51 213
13 68 29 133 35 144 15 29 60 61 86 61 12 0 25 4 28 9 3 4 -68 11 -157 14
-260 9 -455 52 -877 193 -275 92 -471 180 -615 276 -59 40 -82 61 -88 84 -7
24 6 87 61 305 174 680 300 956 552 1210 95 96 115 110 211 157 58 29 130 61
160 72 l54 20 -64 -6 c-74 -6 -150 -32 -208 -71 -301 -202 -370 -274 -528
-548 -155 -269 -309 -689 -355 -970 -22 -132 -25 -207 -10 -234 11 -22 220
-162 302 -203 31 -16 62 -35 68 -44 20 -23 5 -124 -34 -227 -18 -51 -41 -128
-51 -172 -30 -140 -46 -197 -92 -315 -45 -118 -217 -462 -300 -602 -66 -111
-159 -208 -266 -278 -107 -71 -135 -75 -170 -27 -44 57 -195 340 -190 353 2 7
18 17 34 23 36 12 45 32 28 62 -7 13 -78 91 -158 174 -154 158 -319 349 -370
431 -44 69 -68 140 -81 236 -17 123 5 275 104 753 45 212 47 302 11 440 -14
53 -32 110 -40 126 -13 24 -42 49 -59 49 -2 0 11 -33 30 -74 32 -70 34 -82 34
-176 0 -92 -16 -170 -35 -170 -31 0 -233 192 -273 260 -11 20 -32 46 -46 59
-35 33 -33 72 5 145 17 32 42 90 55 129 13 39 38 95 56 126 17 31 105 189 196
351 90 162 186 324 212 360 56 75 174 192 240 237 75 51 388 203 615 299 15 6
29 -7 59 -50 14 -21 26 -52 26 -69 0 -17 -20 -71 -44 -121 -69 -142 -86 -214
-96 -416 -5 -96 -9 -246 -9 -332 -1 -145 1 -160 19 -178 27 -27 66 -26 84 3 8
12 20 42 26 67 12 48 108 236 181 358 126 210 345 452 519 575 179 125 464
288 558 318 66 21 178 24 219 7z m2420 -2609 c126 -16 128 -18 127 -121 -1
-66 -9 -106 -37 -193 -20 -60 -56 -184 -82 -275 -25 -91 -75 -259 -110 -375
-77 -250 -175 -621 -210 -789 -13 -67 -42 -240 -64 -386 -36 -243 -46 -292
-129 -585 -50 -176 -118 -428 -152 -560 -105 -409 -124 -475 -141 -475 -5 0
-26 10 -47 23 -86 53 -271 117 -339 117 -13 0 -36 12 -50 26 -24 24 -25 30
-19 92 25 271 171 943 312 1447 25 88 81 298 124 467 85 331 87 338 160 593
27 94 74 262 105 375 30 113 83 288 117 390 51 152 68 191 95 219 l34 34 107
-6 c59 -3 149 -11 199 -18z m-4142 -3540 c62 -7 506 -12 1180 -14 948 -2 1094
-5 1199 -20 141 -20 161 -26 204 -68 73 -69 110 -195 79 -268 -22 -53 -76
-110 -125 -131 -37 -17 -51 -18 -90 -9 -26 5 -227 12 -447 15 -220 3 -467 10
-550 15 -533 35 -1353 38 -1970 6 -154 -8 -417 -21 -585 -30 -168 -8 -370 -20
-450 -25 -141 -10 -500 2 -558 19 -19 5 0 23 145 133 184 139 288 203 404 248
153 59 237 69 624 80 385 10 631 26 705 44 69 17 110 18 235 5z m2796 -510
c52 -26 122 -96 148 -148 45 -88 71 -284 71 -540 0 -150 -16 -451 -26 -500
l-5 -23 -302 5 c-166 3 -374 12 -462 21 -448 43 -1060 69 -1391 60 -132 -4
-256 -4 -275 0 -20 3 -84 41 -150 87 -152 108 -258 169 -488 284 -265 132
-470 223 -542 240 -34 7 -63 15 -65 17 -6 7 147 353 165 371 16 16 61 17 716
18 679 0 841 -4 1540 -36 182 -8 429 -16 550 -17 l220 -3 58 28 c38 19 75 49
114 93 31 35 63 64 70 64 8 0 32 -9 54 -21z m-5286 -654 c53 -19 194 -19 332
0 119 17 106 17 833 -4 595 -17 625 -21 865 -117 131 -53 685 -325 685 -336 0
-4 -291 -8 -647 -8 -636 0 -787 -5 -1108 -35 -88 -9 -234 -22 -325 -31 -221
-20 -606 -30 -643 -15 -46 18 -49 44 -41 314 3 136 7 247 8 247 0 0 19 -7 41
-15z"/>
<path d="M24564 38236 c-35 -16 -64 -51 -64 -78 0 -21 -7 -20 140 -22 111 -1
119 -3 183 -35 63 -32 69 -33 84 -18 15 15 14 19 -10 56 -39 58 -138 105 -232
109 -44 1 -81 -3 -101 -12z"/>
<path d="M24958 37708 c-7 -197 -20 -231 -145 -359 -109 -112 -121 -139 -97
-212 22 -66 106 -157 145 -157 18 0 32 7 39 20 12 22 4 44 -50 139 -36 65 -34
79 25 141 102 108 135 188 135 325 0 82 -23 220 -40 238 -4 5 -10 -56 -12
-135z"/>
<path d="M24420 37745 c-18 -22 -5 -59 34 -92 26 -23 60 -37 147 -58 117 -29
155 -41 222 -70 l39 -16 -7 23 c-20 67 -131 139 -277 182 -46 13 -96 29 -111
35 -35 14 -32 14 -47 -4z"/>
<path d="M26604 37445 c-57 -58 -73 -105 -36 -105 10 0 26 -6 36 -13 17 -13
17 -15 -4 -64 -11 -27 -41 -70 -66 -94 -49 -48 -54 -63 -25 -79 52 -27 108 12
152 105 35 72 37 130 8 187 -20 38 -20 43 -6 79 9 23 11 39 5 39 -5 0 -34 -25
-64 -55z"/>
<path d="M25285 36764 c-152 -54 -331 -69 -450 -38 -91 24 -119 23 -123 -2 -6
-39 80 -86 187 -103 133 -22 290 18 424 107 101 67 87 80 -38 36z"/>
<path d="M25105 36460 c-11 -5 -39 -9 -62 -9 -23 -1 -49 -4 -58 -7 -14 -6 -14
-8 1 -25 20 -22 82 -25 133 -8 24 9 31 16 29 32 -4 24 -15 29 -43 17z"/>
<path d="M5582 40383 c-9 -7 -12 -123 -10 -544 l3 -534 598 -3 597 -2 0 540 0
540 -468 0 c-258 0 -522 3 -588 6 -65 3 -125 1 -132 -3z"/>
<path d="M10850 38540 c-101 -27 -195 -86 -269 -166 l-61 -67 -90 43 c-117 55
-156 59 -244 26 -117 -44 -184 -92 -311 -221 -113 -114 -126 -124 -235 -178
-63 -32 -136 -73 -161 -91 -56 -41 -201 -213 -229 -271 -45 -92 -45 -201 0
-302 30 -68 26 -107 -15 -163 -50 -68 -65 -110 -65 -182 1 -157 53 -284 155
-375 97 -86 101 -96 141 -430 19 -158 39 -316 44 -350 11 -66 2 -131 -25 -184
-22 -41 -19 -170 5 -263 61 -238 249 -430 489 -499 93 -27 98 -30 186 -133 33
-39 85 -90 115 -115 105 -84 166 -152 184 -204 17 -50 122 -507 133 -577 6
-42 25 -34 -207 -88 -191 -45 -532 -139 -755 -210 -104 -33 -302 -94 -440
-136 -159 -48 -269 -87 -303 -107 -29 -18 -113 -93 -186 -167 -106 -108 -152
-164 -228 -280 -217 -329 -344 -604 -509 -1100 -37 -112 -89 -293 -116 -402
-39 -162 -51 -198 -65 -198 -23 0 -41 30 -68 113 -12 37 -51 124 -87 195 -71
137 -107 230 -118 303 -6 38 0 66 28 155 44 134 63 226 83 397 26 218 4 409
-65 562 -29 62 -274 418 -308 446 -8 8 -42 14 -75 15 -97 2 -113 27 -213 335
-19 59 -55 156 -80 218 -53 132 -297 621 -332 667 -57 75 -151 85 -220 22 -37
-34 -63 -20 -103 55 -43 79 -90 131 -142 158 -48 25 -75 18 -124 -32 -21 -21
-41 -39 -45 -39 -4 0 -34 18 -66 40 -77 54 -119 60 -160 26 -49 -42 -66 -95
-73 -241 -4 -72 -12 -140 -18 -151 -6 -12 -34 -36 -62 -54 -62 -40 -111 -102
-142 -178 -20 -51 -22 -74 -22 -212 0 -175 9 -244 65 -487 119 -516 285 -1012
460 -1371 105 -218 165 -318 254 -429 77 -97 139 -152 257 -234 99 -68 142
-114 163 -179 26 -80 95 -588 145 -1077 45 -440 53 -489 206 -1258 122 -617
156 -760 230 -985 63 -189 127 -325 183 -390 33 -38 40 -42 46 -28 4 11 -5 47
-23 90 -79 193 -196 602 -261 918 -28 138 -188 1078 -306 1805 -92 567 -172
951 -216 1043 -14 28 -54 71 -118 126 -255 221 -428 444 -546 706 -52 114 -66
159 -165 515 -49 176 -129 466 -179 644 -120 427 -125 455 -126 631 0 143 1
146 32 210 49 101 96 144 132 121 9 -6 26 -79 48 -208 64 -374 129 -605 230
-811 57 -117 60 -132 33 -198 -16 -38 -8 -64 20 -64 12 0 65 31 118 69 195
138 342 209 452 218 57 5 71 10 103 39 l37 34 -34 45 c-23 30 -38 63 -45 102
-6 32 -20 101 -32 153 -62 280 -78 360 -104 521 -28 178 -28 225 2 236 22 9
62 -41 125 -157 28 -52 116 -214 196 -360 138 -251 282 -541 282 -567 0 -17
-27 -20 -91 -10 -81 13 -181 -6 -280 -54 -89 -43 -321 -192 -465 -299 -135
-100 -175 -182 -131 -267 38 -73 231 -118 403 -94 142 20 129 25 126 -42 -2
-33 3 -82 11 -110 8 -29 20 -81 27 -117 6 -37 33 -110 60 -168 39 -82 62 -116
112 -165 97 -96 188 -134 188 -78 0 12 -23 35 -63 64 -82 59 -147 136 -201
239 -58 109 -84 197 -90 303 -5 95 4 135 31 135 40 0 196 90 182 104 -3 4 -65
-16 -137 -43 -158 -60 -255 -76 -362 -61 -109 16 -181 36 -204 59 -23 24 -27
81 -7 105 28 34 382 277 496 341 170 95 205 108 300 109 70 1 88 -3 148 -31
100 -48 147 -102 258 -304 112 -202 132 -248 159 -361 35 -142 36 -257 6 -468
-15 -102 -36 -221 -48 -265 -29 -114 -22 -149 55 -311 83 -174 151 -349 262
-674 156 -453 373 -962 638 -1495 316 -635 417 -880 547 -1325 39 -135 75
-256 79 -270 9 -31 51 -39 76 -14 15 16 17 30 11 112 -13 177 -54 356 -141
615 -25 74 -45 145 -45 156 0 25 20 26 181 11 103 -10 135 -7 335 25 64 11 83
-14 153 -195 100 -265 188 -466 303 -698 61 -122 108 -225 104 -229 -3 -3
-161 -5 -351 -4 -332 2 -347 2 -388 -18 -73 -35 -98 -125 -56 -200 21 -38 176
-161 284 -225 l59 -35 -39 -17 c-79 -33 -171 -44 -405 -51 -187 -5 -260 -3
-360 10 -69 9 -165 19 -213 21 -98 6 -164 30 -241 88 -27 21 -79 45 -136 62
-82 26 -96 27 -132 17 -89 -27 -116 -101 -57 -160 17 -17 34 -31 38 -31 4 0
24 -16 44 -35 20 -19 42 -35 50 -35 7 0 24 -11 37 -25 26 -28 52 -32 69 -11
10 12 8 18 -11 29 -13 8 -33 18 -45 21 -11 4 -28 18 -37 31 -10 16 -26 25 -41
25 -14 0 -25 6 -25 14 0 7 -9 25 -20 39 -30 38 -25 54 18 60 48 8 108 -1 152
-23 63 -32 89 -75 114 -192 21 -97 41 -122 106 -138 37 -9 57 -21 75 -45 14
-18 23 -39 20 -47 -8 -20 -85 -68 -110 -68 -25 0 -101 47 -134 84 -23 25 -69
35 -85 19 -3 -4 19 -33 50 -64 51 -51 56 -60 49 -86 -19 -72 -3 -133 36 -133
11 0 19 -7 19 -15 0 -8 7 -15 15 -15 18 0 19 12 4 27 -6 6 -9 26 -7 44 3 30 6
34 29 32 45 -3 119 -44 135 -75 18 -34 12 -57 -23 -99 -20 -24 -26 -41 -26
-82 -1 -29 4 -62 11 -73 6 -12 57 -55 112 -95 56 -41 134 -98 173 -126 108
-78 157 -106 214 -119 49 -11 63 -10 63 6 0 4 -46 31 -101 61 -56 30 -114 66
-130 80 -25 23 -48 74 -37 84 2 2 35 -2 73 -10 153 -32 151 -15 -7 65 -156 78
-182 96 -207 141 -23 40 -25 57 -12 77 7 11 24 10 97 -6 49 -11 127 -25 173
-31 160 -20 188 -49 195 -201 3 -58 5 -108 5 -112 1 -5 16 -8 34 -8 18 0 40
-6 49 -12 14 -12 38 -118 38 -170 0 -31 29 -41 185 -63 176 -26 192 -26 360
-15 466 31 422 27 585 62 128 27 325 96 485 168 22 11 51 22 65 26 14 3 50 21
80 38 30 18 107 58 170 90 63 32 120 63 125 68 29 29 -157 -27 -370 -112 -258
-103 -421 -149 -648 -185 -193 -30 -195 -29 -265 86 -151 253 -297 644 -309
830 -7 108 4 235 23 253 17 18 236 70 377 91 60 8 181 33 269 55 133 34 170
48 221 81 129 86 182 101 269 75 42 -12 66 -27 100 -64 l45 -48 6 -118 c9
-148 38 -291 84 -416 38 -104 143 -313 174 -346 10 -11 19 -29 19 -40 0 -11 7
-29 15 -40 8 -10 15 -36 15 -56 0 -33 3 -38 38 -49 75 -25 199 -8 289 40 97
51 122 56 308 56 146 0 202 5 295 23 63 13 160 32 214 42 54 11 119 20 143 20
25 0 68 6 96 14 29 8 80 20 115 26 67 14 77 25 35 41 -20 7 -52 6 -118 -6 -49
-8 -193 -24 -320 -35 -126 -11 -284 -27 -350 -36 -286 -39 -415 31 -546 297
-99 201 -122 277 -123 424 -1 105 2 125 21 160 37 70 70 91 268 175 122 52
358 158 560 252 83 39 247 110 365 158 118 48 312 130 430 183 692 305 893
377 1159 412 125 17 544 20 641 5 150 -24 309 -97 453 -207 186 -143 336 -244
437 -294 58 -28 127 -65 154 -82 26 -17 65 -33 84 -36 32 -6 37 -10 43 -41 3
-19 25 -73 47 -119 76 -155 69 -217 -41 -326 -83 -82 -201 -167 -319 -230 -52
-28 -209 -86 -425 -159 -187 -63 -351 -119 -363 -126 -15 -8 -20 -19 -18 -38
3 -25 6 -27 48 -24 61 5 220 37 305 63 39 11 84 24 100 29 295 81 431 149 613
303 111 94 157 148 182 214 32 85 36 161 15 255 l-19 80 -105 109 c-80 83
-125 121 -186 156 -126 72 -270 174 -395 278 -198 166 -334 242 -520 293 -90
25 -108 26 -335 27 -132 0 -245 3 -251 7 -17 11 -39 167 -26 180 7 7 94 14
219 19 114 4 273 15 353 23 188 20 483 36 685 36 140 1 309 15 427 36 31 5 38
3 51 -17 25 -38 58 -223 63 -349 6 -132 11 -163 24 -155 12 8 5 370 -10 485
-6 47 -20 128 -30 182 -11 53 -20 117 -20 142 0 43 -2 46 -26 46 -15 0 -49
-13 -75 -30 -107 -65 -236 -107 -538 -175 -323 -71 -427 -84 -726 -91 -303 -7
-428 3 -474 37 -48 35 -85 118 -78 175 2 25 11 53 19 61 10 9 60 20 139 29
165 19 417 71 674 139 390 104 725 233 725 279 0 12 -7 13 -32 5 -514 -153
-1005 -256 -1354 -285 -95 -7 -144 5 -174 43 -24 30 -27 104 -6 126 8 8 106
29 242 51 375 62 531 95 688 147 179 59 316 123 561 264 101 58 188 105 195
105 14 0 37 -53 51 -120 6 -27 15 -52 20 -56 16 -10 9 95 -12 182 l-22 85 23
24 c12 13 40 36 61 51 52 36 63 77 44 159 -30 131 -98 301 -250 630 -109 236
-131 290 -258 615 -52 135 -136 343 -186 463 -50 119 -132 315 -182 435 -110
265 -195 446 -268 572 -30 52 -66 122 -80 155 -26 61 -75 143 -188 318 -167
259 -358 366 -728 407 -55 6 -237 15 -405 21 -168 5 -384 13 -480 18 -214 11
-477 0 -753 -30 -150 -17 -213 -20 -225 -12 -13 8 -20 43 -34 169 -21 201 -22
301 -3 389 18 88 35 125 111 251 33 55 82 150 108 210 73 167 88 189 150 218
49 23 60 35 107 112 128 212 190 456 175 687 -7 111 -17 135 -76 192 -54 52
-77 98 -94 187 -8 40 -20 87 -26 103 -22 59 -101 391 -107 453 -7 73 -6 73 73
97 148 43 254 214 254 409 0 185 -69 317 -214 410 -69 44 -85 69 -102 157 -18
94 -50 161 -112 235 -127 153 -354 243 -538 214 -37 -6 -105 -26 -151 -45 -46
-19 -97 -35 -115 -35 -17 0 -56 14 -87 31 -144 81 -319 108 -461 69z m1049
-1747 c24 -54 91 -186 148 -293 57 -107 129 -246 161 -307 31 -62 60 -113 65
-113 5 0 5 25 2 55 -10 73 -1 99 39 124 71 44 152 14 195 -73 56 -113 18 -385
-85 -602 -38 -81 -125 -205 -131 -187 -3 7 3 73 11 147 9 74 16 144 16 156 0
35 -19 22 -25 -17 -30 -185 -78 -350 -147 -508 -60 -137 -316 -622 -363 -690
-49 -69 -218 -236 -288 -284 -99 -68 -226 -88 -349 -56 -132 34 -349 146 -523
269 -255 180 -465 379 -564 532 -38 60 -79 123 -90 139 -11 17 -28 46 -38 65
-12 25 -18 30 -20 18 -3 -9 1 -26 6 -37 6 -11 11 -43 11 -71 0 -43 -3 -52 -22
-59 -30 -11 -48 -1 -135 76 -46 40 -85 87 -105 123 -18 33 -50 87 -70 122 -21
35 -45 93 -54 128 -34 133 3 294 79 341 45 27 77 21 105 -21 13 -19 27 -36 31
-38 5 -1 11 50 15 115 9 153 34 463 47 578 14 131 18 135 136 135 166 0 233
17 366 95 l49 28 87 -22 c53 -13 119 -21 168 -21 157 0 258 36 343 124 61 63
85 69 148 37 59 -30 163 -59 239 -66 126 -13 261 27 442 130 24 14 47 25 51
25 3 0 26 -44 49 -97z m-6042 -2059 c43 -32 61 -89 67 -214 17 -333 139 -909
247 -1168 10 -24 11 -37 3 -50 -15 -25 -104 -71 -136 -72 -25 0 -32 9 -69 82
-88 175 -124 301 -221 764 -61 294 -62 302 -63 461 0 149 2 164 21 190 36 48
93 51 151 7z m292 -71 c92 -97 113 -148 123 -303 4 -69 12 -154 18 -190 12
-71 101 -424 157 -619 20 -72 32 -133 29 -147 -5 -18 -18 -27 -59 -38 -114
-33 -97 -50 -188 194 -108 292 -143 408 -179 590 -55 283 -73 480 -49 534 11
24 41 44 69 45 8 1 44 -29 79 -66z m5744 -555 c4 -51 11 -126 16 -167 5 -44 5
-96 0 -130 -22 -132 -22 -150 -4 -177 13 -21 16 -39 11 -78 -6 -54 -53 -155
-77 -167 -8 -4 -42 -23 -76 -43 -154 -90 -255 -126 -360 -126 -161 0 -317 83
-489 262 -150 157 -227 296 -279 507 -34 141 -37 161 -21 161 7 0 73 -41 147
-92 195 -133 286 -168 445 -168 181 0 377 84 598 256 37 30 71 54 76 54 4 0
10 -42 13 -92z m-2033 -6583 c9 -11 10 -31 4 -73 -4 -31 -9 -82 -10 -112 -1
-30 -3 -60 -3 -66 -2 -19 -81 -48 -131 -47 -88 1 -269 95 -368 190 -53 51 -54
80 -2 105 30 16 66 18 266 18 195 0 234 -2 244 -15z m300 -25 c168 -14 316
-35 393 -57 l59 -16 -23 -19 c-13 -11 -44 -28 -67 -39 -66 -29 -351 -80 -464
-82 -88 -2 -99 0 -119 20 -43 42 -36 194 9 206 10 3 31 3 47 1 17 -2 91 -8
165 -14z m1103 -249 c10 -7 16 -49 20 -128 13 -229 58 -416 160 -665 36 -86
63 -159 59 -162 -19 -20 -171 8 -178 32 -3 10 -14 35 -24 57 -23 51 -115 340
-134 425 -8 36 -26 136 -40 223 -26 171 -24 205 17 226 26 13 101 8 120 -8z
m-2619 -250 c80 -11 154 -25 164 -30 28 -15 50 -52 57 -97 4 -21 9 -47 12 -57
4 -16 0 -18 -39 -13 -23 3 -79 8 -123 11 -159 12 -239 52 -291 149 -15 28 -15
30 2 43 24 17 45 17 218 -6z m886 -26 c12 -14 31 -118 34 -184 3 -77 -108 -96
-354 -61 -85 12 -169 28 -186 35 -38 15 -67 55 -85 114 -22 74 -12 77 255 85
123 4 237 11 253 16 43 13 69 11 83 -5z m-556 -402 c-8 -32 -14 -78 -14 -103
0 -77 -14 -82 -148 -49 -136 33 -209 76 -257 152 -14 22 -15 30 -5 42 10 12
49 15 225 15 l212 0 -13 -57z m625 38 c20 -20 51 -84 76 -158 16 -48 9 -75
-22 -88 -18 -7 -162 -30 -260 -42 -65 -7 -173 12 -242 44 -43 21 -57 34 -72
67 -22 48 -24 95 -6 120 17 23 113 42 262 51 65 4 128 11 140 15 38 16 104 11
124 -9z m120 -326 c39 -20 78 -69 91 -113 13 -50 -9 -79 -80 -106 -48 -17 -79
-20 -240 -21 -157 0 -192 3 -230 18 -115 47 -160 167 -67 181 17 3 73 8 122
11 50 3 133 14 185 24 120 23 183 25 219 6z m-169 -335 c81 -10 134 -10 232 0
70 6 136 9 147 5 11 -3 30 -20 42 -37 l22 -31 -24 -18 c-55 -42 -121 -52 -298
-46 -144 4 -176 8 -237 30 -103 36 -114 43 -114 76 0 48 -7 48 230 21z"/>
<path d="M11538 36621 c-31 -10 -74 -29 -95 -42 -47 -29 -121 -96 -135 -122
-10 -19 -7 -20 34 -15 24 3 83 24 132 46 48 23 118 49 154 58 67 16 152 57
152 73 0 27 -159 28 -242 2z"/>
<path d="M10281 36274 c-68 -14 -130 -51 -160 -93 -21 -30 -37 -75 -25 -69 81
39 135 57 269 90 88 22 164 43 168 48 10 9 -63 26 -138 33 -27 3 -79 -1 -114
-9z"/>
<path d="M11453 36185 c-30 -21 -47 -78 -46 -155 1 -185 109 -314 199 -237 85
74 -5 407 -110 407 -12 0 -31 -7 -43 -15z"/>
<path d="M10770 36087 c0 -22 44 -114 75 -156 63 -86 72 -223 24 -377 -16 -55
-31 -123 -32 -152 -2 -62 6 -71 113 -124 110 -56 209 -40 268 41 46 64 67 118
52 136 -19 23 -34 19 -91 -30 -29 -25 -71 -50 -92 -56 -53 -14 -115 -2 -145
28 -27 28 -27 30 15 203 40 165 22 235 -103 397 -87 113 -84 110 -84 90z"/>
<path d="M12381 36041 c-28 -53 -26 -77 5 -114 22 -26 25 -37 20 -70 -4 -21
-15 -56 -26 -78 -22 -43 -25 -65 -10 -74 15 -10 38 13 62 59 27 52 26 146 -1
240 -11 38 -22 71 -25 73 -3 3 -14 -13 -25 -36z"/>
<path d="M10375 36000 c-29 -11 -60 -50 -74 -89 -30 -90 1 -269 58 -329 58
-63 131 -49 171 33 20 41 22 58 18 145 -4 80 -10 109 -32 153 -35 73 -91 107
-141 87z"/>
<path d="M9638 35578 c25 -28 28 -71 7 -108 -20 -35 -18 -97 5 -149 11 -24 20
-52 20 -62 0 -10 6 -19 14 -19 7 0 40 -16 72 -35 64 -39 87 -41 92 -8 2 15
-16 40 -67 89 -74 71 -103 123 -81 149 6 8 19 11 27 8 9 -4 21 1 29 12 11 15
11 22 -1 46 -17 32 -67 73 -110 89 l-30 11 23 -23z"/>
<path d="M11520 35169 c-225 -99 -530 -168 -745 -169 -64 -1 -76 -3 -60 -12
41 -22 99 -86 157 -173 103 -154 188 -228 302 -260 64 -19 138 -15 186 10 85
44 169 231 236 528 15 67 15 80 3 91 -12 12 -24 9 -79 -15z m-20 -79 c0 -57
-25 -87 -103 -124 -89 -43 -164 -62 -294 -77 -108 -12 -130 -7 -183 43 l-25
23 69 8 c114 12 336 78 476 141 51 22 60 20 60 -14z"/>
<path d="M15793 29712 c-46 -19 -70 -38 -61 -48 16 -16 128 33 128 56 0 14
-18 12 -67 -8z"/>
<path d="M14298 28241 c-50 -32 -98 -102 -98 -142 1 -72 106 -169 184 -169 87
1 173 66 183 138 7 55 -2 85 -39 127 -68 79 -152 95 -230 46z"/>
<path d="M24552 26715 c-77 -41 -169 -101 -282 -183 -25 -18 -72 -50 -105 -71
-213 -133 -500 -431 -798 -826 -123 -163 -170 -247 -182 -322 -6 -37 -3 -46
19 -68 14 -14 33 -25 43 -25 29 0 70 48 130 150 101 173 319 493 426 625 216
268 364 410 611 584 171 122 247 181 231 181 -6 0 -47 -20 -93 -45z"/>
<path d="M26520 26719 c-321 -24 -747 -130 -1036 -257 -582 -256 -1090 -659
-1362 -1081 -40 -60 -69 -128 -60 -137 16 -15 258 -65 344 -71 143 -8 150 -5
264 134 127 157 250 278 337 336 40 26 76 47 81 47 5 0 35 -57 67 -127 80
-177 154 -325 172 -345 25 -28 77 -32 258 -19 230 16 234 17 246 49 15 38 -1
85 -75 216 -167 297 -246 446 -246 463 0 28 24 46 105 81 182 79 440 153 669
192 158 27 203 27 211 -1 4 -12 6 -215 4 -453 -4 -429 -4 -431 19 -478 l22
-46 178 -4 c210 -5 239 2 260 66 8 26 16 160 23 400 13 471 16 524 37 535 41
21 452 -56 654 -123 176 -58 251 -93 245 -115 -2 -9 -85 -139 -185 -288 -174
-262 -262 -415 -262 -454 0 -13 11 -20 38 -26 50 -11 466 -8 521 3 l43 9 157
255 c86 140 164 256 173 258 21 4 217 -128 257 -173 l31 -36 0 -148 c0 -176
-18 -161 179 -161 116 0 138 -3 166 -20 19 -12 67 -25 116 -31 99 -14 313 -6
384 13 48 14 50 16 53 52 4 47 -14 78 -136 231 -118 146 -351 381 -490 493
-456 366 -1119 657 -1677 736 -247 36 -531 44 -785 25z"/>
<path d="M8390 26434 c0 -10 28 -34 39 -34 16 0 13 11 -6 26 -19 14 -33 18
-33 8z"/>
<path d="M4965 24651 c-73 -33 -225 -141 -240 -171 -23 -44 -19 -111 8 -151
27 -41 110 -88 155 -89 31 0 72 28 72 50 0 6 -10 29 -21 52 -19 38 -20 43 -5
53 9 7 71 14 148 18 195 7 273 33 234 75 -17 20 -149 42 -249 42 -30 0 -62 3
-71 6 -22 8 -20 44 4 74 19 25 27 60 13 60 -5 0 -26 -9 -48 -19z"/>
<path d="M7080 24518 c-26 -28 -26 -68 2 -103 l21 -27 211 5 c117 2 228 10
248 16 58 18 77 72 38 111 -19 19 -33 20 -260 20 -233 0 -240 -1 -260 -22z"/>
<path d="M4973 23942 l-623 -2 0 -4119 0 -4118 -77 -7 c-42 -3 -178 -6 -302
-6 -334 0 -481 -23 -637 -100 -197 -98 -305 -246 -335 -463 -15 -109 -5 -188
55 -449 25 -107 59 -270 76 -364 108 -585 274 -1338 400 -1824 72 -274 101
-384 114 -430 8 -25 31 -103 51 -175 21 -71 62 -209 91 -305 29 -96 67 -229
84 -295 41 -160 80 -288 91 -300 5 -5 9 13 9 47 0 51 -28 184 -129 613 -22 94
-69 323 -106 510 -101 522 -140 713 -216 1060 -107 487 -145 673 -205 999 -99
541 -127 655 -200 833 -57 137 -45 202 55 301 94 94 287 170 526 207 152 24
671 38 1140 31 414 -5 573 -15 629 -38 27 -11 28 -13 23 -67 -11 -115 -38
-281 -82 -505 -25 -126 -52 -286 -60 -355 -24 -194 -33 -243 -50 -260 -13 -14
-41 11 -264 235 -137 138 -293 288 -347 334 -197 165 -449 314 -640 378 -96
32 -441 109 -535 119 -55 5 -105 -8 -95 -26 3 -5 27 -11 53 -14 74 -9 486
-144 593 -193 157 -74 297 -172 495 -346 309 -272 645 -669 1292 -1528 64 -85
160 -209 213 -276 52 -66 136 -174 187 -240 102 -133 324 -405 386 -474 22
-25 99 -106 172 -180 143 -147 257 -272 439 -480 66 -74 146 -164 180 -200 34
-36 125 -135 202 -220 168 -184 479 -490 587 -577 107 -86 152 -110 256 -138
207 -56 234 -84 629 -665 163 -240 248 -305 515 -392 247 -81 349 -106 483
-119 132 -13 206 -5 349 36 50 15 119 33 155 41 50 12 74 24 103 52 l38 37
322 -3 c177 -1 480 -9 672 -17 193 -8 482 -17 644 -20 313 -6 496 -20 791 -61
102 -14 252 -29 334 -33 129 -6 150 -9 162 -26 17 -22 19 -385 3 -525 -5 -47
-11 -220 -14 -385 -5 -278 -4 -297 10 -260 9 22 20 92 25 155 5 63 23 210 39
325 90 630 92 702 16 762 -19 16 -35 31 -35 36 0 4 16 7 35 7 33 0 56 8 151
51 29 13 64 19 117 19 46 0 99 8 138 20 35 10 92 23 127 29 34 5 72 17 84 25
12 9 41 16 63 16 22 1 65 10 95 21 30 11 75 24 100 29 25 4 56 13 70 19 14 7
68 23 120 37 52 13 118 31 145 38 28 7 65 21 82 30 18 9 43 16 57 16 14 0 62
12 107 26 144 45 171 26 318 -226 56 -96 189 -300 210 -322 9 -9 34 -38 56
-64 22 -27 76 -84 120 -129 95 -96 166 -188 225 -293 62 -110 187 -281 412
-562 383 -480 463 -575 622 -739 153 -158 298 -313 416 -446 88 -98 121 -135
200 -219 42 -45 91 -99 110 -120 19 -22 42 -47 50 -56 8 -9 30 -34 49 -55 86
-101 475 -488 554 -550 204 -162 343 -247 517 -316 52 -20 66 -21 259 -17 226
5 213 8 338 -71 64 -41 140 -50 269 -30 148 22 167 16 264 -92 36 -40 75 -83
88 -96 12 -13 22 -27 22 -31 0 -4 8 -15 18 -24 9 -9 26 -29 37 -44 11 -14 28
-35 37 -45 10 -11 18 -23 18 -29 0 -5 9 -14 20 -20 11 -6 20 -17 20 -25 0 -8
9 -19 20 -25 11 -6 20 -15 20 -19 0 -10 29 -43 150 -170 41 -44 95 -106 120
-137 25 -32 84 -100 133 -150 119 -125 118 -154 -5 -154 -60 0 -148 28 -220
71 -31 19 -83 50 -115 69 -109 64 -217 42 -312 -66 -81 -92 -101 -177 -61
-260 11 -23 51 -72 88 -110 98 -101 112 -121 112 -170 0 -24 -4 -54 -9 -67
-10 -25 -9 -25 62 -32 174 -17 328 -115 471 -299 78 -100 178 -252 218 -329
42 -84 94 -247 112 -352 18 -100 22 -479 7 -504 -8 -12 -40 -12 -228 3 -467
36 -570 45 -595 55 -37 14 -66 56 -72 104 -3 23 -18 137 -33 252 -23 176 -28
246 -28 430 1 238 13 356 51 494 28 101 31 139 10 122 -62 -51 -143 -389 -167
-695 -29 -362 38 -892 137 -1088 30 -59 97 -134 127 -144 12 -4 32 -15 44 -24
13 -10 44 -21 70 -24 27 -4 64 -15 83 -24 32 -16 131 -17 1240 -20 1162 -2
1207 -2 1270 17 62 18 121 19 1229 25 1141 6 1165 6 1198 26 19 11 47 20 63
20 43 0 87 43 105 103 12 41 14 83 10 202 -4 83 -7 278 -9 435 -2 282 -3 286
-29 353 -48 122 -106 231 -160 297 -79 97 -256 245 -324 271 -13 5 -23 12 -23
17 0 4 -33 23 -72 41 -40 18 -93 44 -118 56 -92 47 -409 141 -575 170 -21 4
-56 15 -77 26 -47 24 -55 24 -63 -2 -4 -11 -41 -57 -83 -102 -43 -45 -94 -102
-115 -127 l-38 -45 -62 3 c-102 4 -375 31 -476 47 -105 17 -402 89 -431 105
-28 15 -25 60 6 123 74 146 216 308 270 309 37 1 244 -60 264 -77 8 -7 27 -16
42 -20 14 -4 34 -15 43 -25 15 -17 12 -24 -50 -118 -66 -102 -129 -226 -123
-244 2 -5 40 42 85 104 45 63 109 140 143 171 l61 57 -25 10 c-14 5 -26 14
-26 19 0 12 -87 57 -130 66 -19 4 -75 28 -125 53 -49 25 -99 50 -110 56 -11 5
-37 18 -59 29 -35 17 -125 76 -199 131 -108 80 -377 396 -509 597 -55 83 -100
119 -149 119 -22 0 -56 -8 -77 -19 -20 -10 -51 -22 -69 -25 -17 -4 -34 -13
-37 -21 -3 -8 -21 -17 -41 -21 -20 -3 -48 -17 -62 -30 -14 -13 -32 -24 -39
-24 -7 0 -52 -39 -99 -88 -89 -89 -169 -209 -181 -269 -8 -42 -34 -44 -64 -6
-12 16 -85 96 -163 178 -79 83 -167 176 -197 208 -30 33 -67 65 -82 73 -16 8
-28 21 -28 28 0 8 -7 16 -14 19 -22 9 -48 66 -42 92 3 12 19 37 35 54 27 29
34 31 95 31 52 0 73 5 96 21 20 15 48 23 98 27 56 4 71 8 75 22 3 13 19 20 56
25 32 4 51 12 51 20 0 16 22 25 58 25 15 0 45 10 67 22 22 12 64 25 93 29 30
4 62 15 72 24 9 8 41 18 71 21 30 3 65 14 79 23 14 10 38 21 54 25 17 4 35 14
40 22 6 7 35 18 65 24 30 6 62 17 71 25 10 9 41 18 71 22 29 3 62 14 72 23 10
10 38 20 63 24 25 3 57 15 71 26 14 11 36 20 49 20 13 0 35 11 50 25 15 14 36
25 46 25 11 0 31 9 44 19 14 11 50 23 80 27 37 4 58 12 64 24 6 11 27 20 59
24 29 4 54 13 59 22 5 9 28 18 53 21 24 3 53 14 64 24 11 9 34 21 50 25 17 4
40 15 52 24 13 10 44 21 70 25 26 4 60 15 74 26 15 10 40 19 55 19 15 0 37 9
49 20 12 12 45 24 73 29 27 4 57 15 65 23 9 8 34 18 57 22 23 3 53 15 68 25
15 11 48 22 74 26 28 3 51 13 57 22 6 11 30 19 69 24 38 4 71 15 88 28 15 11
37 21 49 21 12 0 56 16 98 35 42 19 82 35 90 35 21 0 41 26 27 35 -6 4 -16 2
-23 -3 -26 -21 -598 -224 -892 -317 -474 -149 -1224 -399 -1580 -528 -525
-190 -777 -277 -799 -277 -12 0 -33 8 -47 18 -41 26 -160 164 -157 180 5 22
393 158 903 316 492 152 585 185 1175 419 173 69 396 154 495 190 282 103 469
175 760 297 149 62 383 157 520 212 271 108 322 134 434 216 l74 54 -6 72 c-7
78 -27 138 -87 254 -52 101 -61 113 -115 173 -8 9 -15 18 -15 22 0 9 -92 99
-124 122 -84 59 -120 77 -211 105 -55 17 -113 38 -128 47 -27 14 -175 32 -272
32 -37 0 -39 -1 -21 -14 11 -8 34 -15 51 -15 47 0 310 -67 358 -91 107 -54
234 -167 304 -269 70 -104 173 -349 173 -414 0 -73 -19 -86 -237 -163 -567
-199 -1164 -406 -1196 -415 -51 -14 -61 -3 -97 108 -71 221 -94 483 -66 764
14 145 21 181 61 300 25 74 45 135 45 137 0 2 -7 3 -15 3 -18 0 -69 -110 -95
-204 -10 -38 -26 -77 -37 -87 -12 -13 -73 -29 -198 -55 -99 -20 -183 -38 -187
-40 -3 -2 -18 0 -31 5 -41 16 -62 118 -48 230 11 88 28 101 131 101 57 0 81 4
90 15 7 9 11 18 8 20 -3 3 -61 12 -129 20 -174 22 -356 52 -480 81 -58 13
-115 24 -127 24 -31 0 -200 48 -250 71 -23 10 -48 19 -54 19 -7 0 -29 11 -50
25 -21 14 -57 37 -80 52 -46 29 -121 89 -205 162 -106 95 -109 96 -195 96 -58
0 -81 -5 -95 -18 -43 -40 -91 -77 -102 -77 -6 0 -11 -7 -11 -15 0 -8 -10 -20
-22 -26 -13 -7 -36 -23 -51 -35 -16 -13 -32 -24 -35 -24 -8 0 -72 60 -282 264
-123 119 -175 168 -315 296 -357 326 -906 867 -1753 1725 -436 443 -516 526
-684 720 -81 94 -176 202 -210 242 -35 39 -77 88 -95 110 -53 63 -37 22 25
-65 76 -107 201 -256 348 -417 66 -71 155 -173 199 -225 283 -336 883 -995
1224 -1344 80 -81 386 -380 680 -664 293 -283 548 -536 567 -561 45 -63 58
-116 50 -204 -4 -40 -11 -137 -15 -217 -12 -209 -12 -208 -179 -318 -210 -138
-251 -157 -336 -157 -97 0 -125 16 -346 194 -235 188 -364 303 -569 504 -214
210 -288 294 -566 642 -128 160 -272 335 -321 390 -131 146 -247 284 -355 420
-104 130 -417 531 -487 623 -106 139 -183 223 -427 472 -143 146 -307 324
-365 395 -241 296 -561 593 -779 725 -123 73 -220 102 -361 108 -124 4 -145 1
-379 -52 -85 -20 -157 -33 -160 -30 -8 8 103 115 195 188 44 35 94 80 111 99
29 33 50 74 41 82 -1 2 -60 -45 -130 -103 -167 -141 -159 -134 -343 -244 -692
-411 -1437 -923 -2040 -1401 -66 -52 -123 -92 -127 -89 -4 4 -79 159 -167 344
-437 919 -733 1449 -1082 1940 -67 93 -117 173 -113 178 5 4 95 52 199 107
294 155 484 239 760 333 138 48 192 68 555 210 375 146 756 257 1065 311 138
24 396 32 503 16 33 -5 52 -4 52 2 0 17 -100 41 -213 52 -135 12 -196 39 -219
99 -31 80 -33 239 -32 3215 0 1639 0 3558 0 4265 -1 1752 0 1900 2 2015 1 55
1 116 0 135 -1 19 2 56 6 82 8 44 7 47 -15 52 -25 6 -8582 13 -9656 8z m9103
-176 c18 -14 19 -31 19 -549 0 -438 -2 -537 -14 -550 -19 -24 -252 -25 -275
-1 -14 14 -16 77 -16 549 0 472 2 535 16 549 21 22 240 23 270 2z m-464 -206
c17 -21 18 -49 18 -436 0 -496 13 -454 -138 -454 -72 0 -103 4 -120 16 l-22
15 0 428 c0 331 3 431 13 439 18 15 63 20 151 18 69 -3 82 -6 98 -26z m-531
-99 l24 -19 3 -395 c2 -352 1 -397 -13 -411 -13 -13 -38 -16 -118 -16 -158 0
-143 -39 -152 399 -8 405 -5 432 43 450 15 5 64 10 108 10 66 1 86 -3 105 -18z
m-457 -203 c14 -19 16 -65 16 -296 0 -169 -4 -281 -10 -293 -10 -17 -22 -19
-113 -19 -67 0 -107 4 -115 12 -9 9 -12 89 -12 299 0 248 2 290 16 303 12 12
37 16 109 16 86 0 95 -2 109 -22z m-2773 -410 c267 -297 418 -576 493 -910 14
-63 26 -121 26 -128 0 -18 -54 -8 -132 25 -84 36 -189 44 -255 20 -107 -38
-152 -114 -60 -101 23 3 80 8 127 11 75 5 97 1 194 -27 134 -41 141 -49 156
-174 9 -73 8 -123 -5 -250 -45 -438 -128 -944 -196 -1192 -72 -263 -200 -423
-529 -667 -129 -95 -241 -124 -356 -90 -151 44 -584 318 -798 504 -138 121
-177 151 -194 151 -9 0 -13 -7 -10 -18 5 -19 417 -641 492 -742 97 -132 170
-189 244 -190 40 0 41 -15 7 -130 -38 -127 -35 -160 25 -255 47 -73 105 -228
126 -331 12 -64 -42 -72 -231 -34 -173 35 -337 93 -521 185 -212 105 -356 196
-554 348 -232 177 -238 183 -245 220 -4 22 22 152 85 420 179 767 194 844 180
883 -6 14 -37 42 -72 64 -113 71 -288 303 -344 458 -52 142 -29 272 63 352 32
29 42 32 82 28 54 -5 119 -44 230 -137 55 -46 81 -61 99 -59 37 4 49 31 33 70
-7 18 -15 45 -18 59 l-5 26 94 6 c63 3 117 14 168 31 178 62 470 223 654 360
132 99 169 109 328 91 76 -9 98 1 98 41 0 27 -16 45 -84 92 l-47 32 55 78
c215 300 345 521 404 687 29 79 72 244 72 273 0 41 28 23 121 -80z m1879
-2813 c105 -19 243 -54 335 -87 96 -34 316 -141 396 -193 135 -87 299 -231
406 -357 41 -48 79 -88 85 -88 10 0 8 34 -8 130 -7 42 27 100 67 114 38 13 81
-11 93 -53 13 -44 -10 -383 -29 -427 -21 -50 -73 -61 -195 -40 -52 9 -128 19
-168 22 -58 5 -76 11 -87 28 -19 26 -19 31 1 50 11 12 36 16 90 16 55 0 74 3
74 13 0 25 -81 131 -163 215 -118 120 -227 211 -368 305 -296 197 -580 295
-909 315 l-135 8 39 18 c22 10 58 22 80 26 59 13 285 4 396 -15z m-536 -46
c-7 -12 -44 -12 -44 0 0 5 6 11 13 14 17 6 38 -3 31 -14z m-695 -209 c37 -85
89 -198 116 -250 155 -307 464 -780 510 -780 24 0 18 31 -15 80 -66 97 -133
215 -263 461 -131 248 -188 348 -248 436 -31 45 -37 84 -15 102 10 9 26 -5 76
-66 151 -189 766 -1152 877 -1373 70 -141 278 -644 316 -765 64 -205 79 -376
66 -770 -11 -333 -32 -640 -60 -860 -39 -306 -145 -904 -288 -1620 -39 -192
-88 -454 -110 -580 -76 -434 -101 -514 -178 -591 -86 -84 -299 -144 -514 -144
-220 0 -379 63 -536 213 -242 232 -317 401 -293 657 33 344 120 594 272 788
56 70 84 82 74 30 -14 -71 -25 -277 -18 -348 l8 -75 7 79 c18 199 83 436 209
761 38 99 105 277 148 395 43 118 130 341 193 495 200 489 327 834 347 944 12
68 3 136 -26 192 -8 16 -49 67 -91 112 -181 195 -271 385 -338 710 -64 307
-103 436 -222 731 -99 245 -139 392 -155 566 -13 138 -8 185 23 224 34 43 51
20 129 -174 105 -262 381 -743 450 -783 32 -19 50 -22 50 -8 0 6 -52 102 -115
215 -122 218 -251 467 -354 684 -64 134 -94 172 -137 172 -46 0 -57 26 -51
120 8 124 32 184 70 178 14 -2 36 -42 86 -158z m-2827 -802 c36 -29 98 -80
139 -114 41 -33 94 -74 119 -90 25 -15 90 -64 145 -108 149 -119 291 -208 480
-301 186 -92 302 -134 454 -165 128 -26 176 -25 231 3 94 47 103 138 30 295
-24 51 -40 95 -37 98 9 10 136 -79 210 -146 148 -136 262 -310 409 -623 189
-403 281 -685 473 -1442 57 -227 57 -230 -40 -282 -33 -18 -63 -33 -67 -33 -4
0 -32 80 -63 178 -67 212 -223 684 -289 872 -43 123 -104 251 -125 264 -5 3
18 -76 51 -177 58 -180 326 -1228 354 -1382 18 -104 18 -255 -1 -345 -21 -98
-105 -390 -155 -533 -73 -214 -142 -354 -274 -562 -101 -158 -160 -290 -257
-574 -56 -164 -89 -311 -89 -398 -1 -149 -20 -208 -140 -423 -115 -205 -151
-282 -139 -296 35 -42 113 28 234 210 52 77 103 152 113 165 30 37 49 22 55
-46 6 -68 -8 -273 -24 -355 -15 -73 -7 -108 25 -108 42 0 49 23 57 173 4 78
10 150 14 159 6 16 10 16 36 3 57 -30 205 -148 256 -205 29 -32 79 -75 110
-95 170 -111 193 -127 193 -135 0 -5 -217 -118 -482 -253 -540 -273 -833 -429
-925 -492 -34 -24 -94 -56 -134 -71 -49 -19 -74 -35 -80 -50 -8 -22 -14 -20
-241 90 -792 385 -1024 491 -1323 602 -151 57 -228 104 -272 171 -57 85 -57
107 -13 384 22 136 65 419 95 630 64 437 101 633 179 945 49 194 80 339 100
456 11 59 24 62 207 38 191 -24 243 -25 300 -5 99 35 142 91 194 250 262 799
375 1214 417 1530 8 61 13 201 13 360 0 221 -3 270 -18 324 -33 117 -83 199
-207 341 -31 36 -77 92 -101 125 -73 101 -200 225 -230 225 -5 0 46 -69 114
-154 158 -199 222 -287 257 -356 156 -309 111 -755 -180 -1790 -39 -140 -96
-343 -126 -450 -64 -231 -78 -264 -112 -280 -54 -24 -291 -7 -552 40 -354 64
-693 185 -1108 397 -203 103 -555 307 -602 348 -45 39 -123 89 -204 130 -51
25 -86 50 -95 67 -15 25 -13 30 22 99 21 39 93 155 161 258 67 102 165 252
217 333 98 154 394 609 618 953 72 110 174 268 227 350 52 83 101 152 107 154
7 2 55 48 107 101 52 54 103 102 113 107 10 5 112 98 227 207 192 180 222 205
353 283 182 111 316 172 378 172 41 1 53 -5 111 -51z m-1986 -3804 c429 -328
774 -512 1114 -594 103 -25 130 -41 130 -76 0 -13 -22 -90 -49 -171 -97 -294
-156 -563 -270 -1222 -39 -222 -74 -408 -79 -413 -15 -15 -92 82 -568 712
-518 685 -493 650 -505 693 -17 60 13 694 47 992 18 155 23 185 34 185 4 0 70
-48 146 -106z m10539 -3247 c99 -28 215 -79 300 -130 268 -162 653 -474 940
-763 71 -71 153 -150 182 -175 69 -59 73 -78 27 -128 -29 -33 -52 -46 -114
-66 -208 -65 -386 -54 -707 44 -342 105 -422 111 -568 43 -194 -91 -395 -396
-455 -692 -26 -125 -28 -330 -6 -535 8 -71 13 -132 11 -134 -8 -8 -33 20 -162
187 -186 240 -356 479 -410 577 -43 78 -109 163 -119 152 -3 -2 18 -51 46
-108 37 -75 50 -113 48 -138 -3 -33 -4 -34 -104 -66 -56 -18 -193 -72 -305
-119 -167 -69 -445 -171 -752 -274 -80 -27 -84 -21 -112 183 -21 155 -65 334
-122 499 -52 149 -58 205 -24 259 33 54 335 318 946 828 182 152 355 297 385
323 80 69 176 130 250 159 39 15 142 37 255 56 105 17 201 32 215 35 51 9 306
-3 355 -17z m-8341 -171 c138 -63 333 -151 434 -195 667 -296 1095 -517 1371
-708 136 -95 294 -257 442 -455 127 -171 407 -598 434 -660 18 -44 37 -190 26
-201 -5 -5 -21 -7 -36 -5 -23 2 -38 21 -97 117 -110 182 -224 335 -388 521
-36 41 -86 102 -110 135 -42 57 -258 305 -267 305 -16 0 140 -227 251 -365
184 -228 456 -658 456 -719 0 -15 -95 -56 -131 -56 -34 0 -68 46 -208 286 -73
126 -173 290 -221 364 -47 74 -102 161 -121 194 -19 32 -73 101 -121 152 -49
51 -88 98 -88 103 0 5 -11 16 -25 25 -38 25 -33 -5 9 -51 58 -65 246 -362 331
-523 45 -85 126 -237 179 -338 54 -101 95 -186 92 -190 -4 -3 -38 -8 -75 -10
-64 -4 -70 -2 -104 28 -20 17 -98 126 -173 243 -76 117 -178 268 -228 337 -49
69 -119 168 -154 220 -71 105 -155 211 -198 250 -27 25 -27 25 7 -38 19 -35
60 -100 91 -145 98 -140 144 -213 305 -482 85 -143 165 -276 179 -296 28 -41
30 -56 7 -81 -35 -39 -135 -12 -285 79 -127 76 -192 153 -373 442 -254 408
-327 483 -580 606 -182 89 -212 110 -311 222 -246 281 -426 552 -559 841 -56
123 -62 162 -28 162 9 0 129 -51 267 -114z m9937 -1089 c66 -44 241 -274 526
-692 836 -1225 1205 -1729 1599 -2185 55 -63 158 -191 229 -285 71 -93 152
-197 179 -230 27 -33 61 -85 75 -115 24 -50 26 -66 26 -175 -1 -146 -30 -265
-104 -420 -65 -136 -111 -200 -222 -312 -150 -151 -350 -273 -575 -350 -104
-36 -115 -37 -244 -38 -197 0 -284 30 -505 175 -185 123 -272 195 -491 414
-253 254 -484 509 -949 1050 -308 359 -529 608 -901 1014 -234 255 -298 339
-431 558 -129 213 -156 306 -156 524 0 152 28 342 70 475 56 178 174 359 286
438 141 100 261 114 507 58 433 -98 633 -80 895 77 82 50 133 55 186 19z
m4030 -2053 c17 -8 90 -63 162 -120 291 -231 478 -306 932 -373 115 -17 210
-33 213 -35 2 -3 -5 -33 -17 -68 -24 -74 -27 -106 -16 -209 l8 -76 -32 -11
c-45 -16 -261 -36 -302 -28 -75 14 -92 72 -60 211 11 50 23 101 27 115 7 22 6
24 -9 11 -37 -30 -68 -117 -79 -222 -6 -57 -16 -107 -22 -111 -6 -4 -90 -8
-187 -8 -157 0 -179 2 -200 19 -42 34 -23 155 53 339 17 40 28 75 25 78 -3 3
-17 -2 -31 -12 -36 -23 -88 -136 -127 -278 l-33 -118 -46 6 c-63 8 -85 37
-100 128 -25 149 -85 248 -175 289 -50 23 -168 25 -248 4 -32 -8 -60 -15 -62
-15 -3 0 -5 30 -5 68 0 170 91 341 217 406 57 30 74 31 114 10z m-1211 -1600
c114 -41 198 -81 274 -132 83 -55 353 -314 438 -421 33 -41 70 -83 83 -93 12
-10 26 -29 29 -43 4 -14 20 -47 36 -74 34 -54 68 -177 54 -191 -16 -16 -628
-220 -659 -220 -56 0 -74 12 -159 106 -97 107 -100 116 -62 210 45 111 44 209
-4 337 -12 32 -35 73 -51 92 -28 32 -84 63 -95 52 -3 -3 19 -51 48 -108 45
-88 53 -114 56 -170 3 -49 0 -75 -13 -100 -24 -46 -185 -229 -286 -323 -143
-135 -353 -259 -439 -260 -68 -1 -63 19 28 133 112 139 437 626 497 746 41 81
55 100 71 98 17 -2 20 3 17 25 -3 15 7 74 21 132 14 58 26 133 26 168 0 34 4
62 9 62 6 0 42 -12 81 -26z m1888 -1848 c17 -9 47 -47 77 -101 101 -176 186
-296 266 -380 75 -77 81 -87 67 -103 -8 -9 -37 -44 -65 -77 -28 -33 -68 -87
-89 -120 -20 -33 -58 -85 -82 -115 -46 -56 -88 -137 -78 -148 10 -9 55 38 110
114 62 86 220 264 250 281 34 20 58 15 111 -20 28 -18 80 -50 118 -71 44 -24
65 -41 60 -49 -4 -7 -30 -43 -59 -82 -64 -86 -106 -166 -142 -270 -24 -71 -30
-80 -54 -83 -32 -4 -330 89 -375 118 -18 11 -33 24 -33 30 0 5 -18 10 -41 10
-29 0 -53 9 -84 30 -62 42 -85 97 -96 223 -9 117 -18 152 -53 211 -45 76 -135
138 -262 180 -90 29 -108 76 -62 158 45 82 230 201 393 254 84 28 88 28 123
10z m2020 -1217 c70 -23 190 -68 267 -101 490 -208 699 -402 775 -721 24 -101
37 -291 21 -329 -13 -36 -58 -63 -144 -89 -117 -35 -201 -47 -597 -83 -583
-53 -641 -57 -835 -59 l-180 -2 -3 58 c-2 31 4 112 13 180 41 314 156 678 266
840 77 113 268 347 284 347 3 0 63 -19 133 -41z m1122 -1369 c0 -6 -9 -52 -21
-103 -11 -50 -24 -134 -27 -186 -9 -124 -12 -127 -187 -141 -134 -11 -589 -38
-1060 -65 -507 -28 -850 -32 -2130 -25 -1112 6 -1293 9 -1375 23 -251 43 -323
70 -403 149 -49 49 -86 116 -87 154 0 46 18 49 264 49 127 0 389 4 581 9 280
6 361 11 405 24 49 15 121 17 638 16 555 -1 583 -2 603 -20 18 -16 37 -19 123
-18 1133 5 1640 13 1816 28 273 22 591 63 707 91 108 26 153 30 153 15z"/>
<path d="M9952 21554 c-12 -8 -35 -39 -49 -67 -50 -94 -32 -245 33 -296 54
-43 125 -14 153 62 14 37 14 239 0 270 -20 45 -94 62 -137 31z"/>
<path d="M8898 21475 c-15 -9 -38 -39 -55 -72 -24 -50 -28 -70 -28 -143 0 -71
4 -93 25 -135 32 -63 82 -99 129 -91 85 13 114 66 114 206 1 124 -16 192 -55
225 -34 29 -87 33 -130 10z"/>
<path d="M9666 21280 c-85 -253 -74 -357 56 -523 56 -72 53 -88 -43 -193 -111
-122 -134 -157 -119 -183 14 -28 27 -26 81 7 61 39 152 142 191 218 39 75 37
84 -40 189 -102 140 -130 275 -92 453 12 56 20 119 18 140 -3 32 -9 18 -52
-108z"/>
<path d="M7717 21058 c45 -50 56 -110 28 -158 -41 -71 6 -200 97 -267 18 -12
45 -23 60 -23 35 0 50 28 22 43 -56 30 -151 170 -140 205 4 11 22 22 44 28 22
5 38 16 40 26 4 22 -60 102 -112 140 -47 34 -67 37 -39 6z"/>
<path d="M9843 20230 c-89 -70 -156 -93 -273 -93 -86 -1 -107 3 -221 41 -141
47 -151 49 -170 26 -21 -26 -1 -43 103 -84 137 -54 221 -74 313 -74 70 -1 88
3 145 30 86 42 153 108 179 177 15 39 -3 34 -76 -23z"/>
<path d="M9525 19870 c-19 -7 -18 -9 8 -19 32 -13 112 -14 142 -2 17 7 14 10
-20 20 -46 13 -101 13 -130 1z"/>
<path d="M8215 15278 c43 -214 140 -396 289 -543 62 -61 101 -90 166 -123 89
-44 250 -92 311 -92 43 0 72 20 68 45 -4 21 -13 27 -171 123 -234 143 -437
323 -580 514 -44 59 -82 108 -85 108 -2 0 -2 -15 2 -32z"/>
<path d="M16378 10061 c-47 -16 -86 -50 -109 -98 -18 -38 -22 -61 -21 -134 4
-227 124 -378 300 -379 149 0 231 107 220 289 -9 137 -80 245 -196 299 -57 26
-150 37 -194 23z"/>
<path d="M24335 23691 c-38 -10 -95 -29 -126 -40 -85 -32 -250 -146 -375 -259
-81 -73 -133 -111 -190 -139 -236 -116 -419 -294 -529 -518 -103 -209 -136
-371 -140 -700 -3 -183 -8 -252 -24 -335 -42 -213 -22 -361 80 -568 97 -199
184 -271 296 -243 59 15 78 3 97 -61 21 -71 74 -158 158 -259 83 -100 132
-184 151 -260 10 -37 16 -118 17 -240 3 -234 3 -226 -19 -239 -11 -5 -113 -21
-228 -35 -768 -94 -982 -152 -1274 -346 -110 -74 -271 -231 -344 -337 -27 -40
-86 -117 -130 -170 -115 -138 -163 -202 -240 -322 -37 -58 -76 -117 -86 -132
-11 -15 -19 -33 -19 -41 0 -8 -42 -77 -92 -155 -51 -77 -126 -197 -166 -266
-40 -70 -77 -124 -82 -121 -30 18 -220 684 -321 1120 -22 99 -56 225 -75 280
-42 125 -44 165 -6 199 15 13 51 46 81 73 104 93 136 172 151 372 13 168 24
260 56 471 29 182 25 224 -21 254 -49 32 -149 11 -211 -44 -55 -48 -68 -42
-100 50 -16 47 -42 97 -61 120 -47 55 -84 64 -217 55 -156 -11 -173 -11 -247
9 -61 17 -70 17 -120 2 -30 -8 -81 -35 -113 -60 -76 -56 -127 -71 -209 -61
-34 5 -94 9 -132 9 -102 1 -183 -41 -291 -148 -169 -169 -198 -316 -149 -738
18 -157 27 -169 157 -218 57 -21 90 -50 127 -112 28 -47 72 -85 110 -93 45
-10 115 -77 129 -123 7 -22 12 -78 12 -124 0 -47 5 -99 11 -117 9 -24 8 -35
-2 -48 -10 -11 -14 -44 -13 -107 1 -109 24 -363 35 -391 4 -11 8 118 8 287 0
354 1 360 77 408 27 16 51 30 56 30 4 0 32 9 63 21 48 18 54 23 43 36 -17 21
-52 33 -126 44 -91 13 -206 64 -258 114 -24 23 -44 46 -44 52 0 19 84 53 131
53 24 -1 71 -7 104 -15 118 -29 200 -13 292 56 68 51 95 61 152 53 77 -10 123
9 202 83 l70 66 87 1 c101 1 153 22 190 76 43 64 46 100 27 283 -25 237 -7
384 57 448 43 42 125 38 142 -7 3 -9 -7 -82 -23 -163 -17 -80 -44 -240 -61
-356 -44 -305 -50 -329 -114 -409 -32 -42 -183 -145 -288 -198 -77 -38 -73
-35 -59 -51 6 -8 39 -17 72 -21 35 -3 76 -15 95 -27 74 -46 95 -113 199 -632
36 -180 95 -454 131 -610 36 -155 101 -437 145 -627 43 -190 117 -510 164
-711 102 -438 144 -643 190 -916 37 -222 49 -256 93 -251 l27 3 3 123 c1 68
-1 145 -6 170 -13 75 -7 85 42 80 97 -11 325 -134 489 -265 120 -96 177 -156
177 -186 0 -49 -408 -477 -614 -644 -162 -131 -365 -251 -484 -286 -172 -51
-290 -21 -520 133 -331 221 -538 559 -643 1048 -17 81 -35 151 -40 156 -19 21
17 -229 57 -394 79 -323 183 -525 370 -720 138 -143 299 -243 499 -308 163
-54 288 -51 408 9 158 80 365 245 553 440 69 71 254 289 369 434 83 104 110
117 141 70 15 -23 16 -88 8 -803 -11 -911 -10 -1227 0 -1412 8 -122 6 -150
-19 -295 -14 -88 -44 -243 -66 -345 -73 -349 -90 -469 -96 -680 -6 -225 -7
-224 77 -305 28 -27 73 -71 100 -98 40 -39 95 -85 250 -210 8 -7 85 -58 170
-114 85 -56 170 -113 189 -127 18 -14 54 -28 80 -31 25 -4 98 -17 161 -30 63
-13 156 -28 205 -34 50 -7 185 -27 300 -46 219 -36 469 -65 790 -90 105 -9
260 -22 345 -30 212 -20 289 -19 497 9 98 14 210 27 248 31 235 21 576 77 803
131 57 13 119 24 137 24 31 0 35 -3 41 -37 4 -20 4 -98 1 -172 -4 -75 -2 -280
3 -456 5 -176 13 -498 19 -715 6 -217 16 -541 21 -720 6 -179 13 -433 17 -565
4 -186 9 -244 20 -256 22 -26 52 -12 63 30 18 67 31 373 37 826 6 495 -6 884
-37 1247 -11 128 -29 348 -41 488 -11 140 -23 276 -26 301 -3 33 -1 49 10 58
16 13 217 83 274 95 l33 8 0 -399 c-1 -373 19 -848 60 -1503 19 -295 23 -597
12 -880 -7 -157 -13 -383 -14 -503 l-3 -219 25 -19 c14 -10 32 -26 41 -34 26
-25 39 -18 62 33 21 45 22 65 30 567 14 854 4 1125 -63 1815 -16 168 -46 490
-65 715 -38 440 -45 505 -76 662 -25 128 -19 146 62 185 93 44 93 43 86 412
-6 320 -19 492 -62 793 -23 162 -24 179 -11 242 8 37 33 105 56 151 46 91 70
184 70 273 0 31 -13 166 -30 300 -33 267 -64 572 -80 772 -31 396 -33 971 -3
1000 7 8 37 16 65 19 29 3 98 10 153 15 91 10 102 9 125 -7 40 -29 72 -147
182 -669 89 -422 104 -483 120 -483 22 0 22 3 3 195 -16 162 -38 302 -84 544
-31 165 -30 194 11 211 13 5 68 26 123 45 185 67 381 168 738 382 89 53 165
92 173 89 22 -8 43 -65 84 -231 88 -352 150 -875 150 -1276 0 -206 7 -269 24
-241 4 6 12 60 18 119 9 83 8 130 -1 203 -7 52 -16 212 -21 355 -15 448 -53
729 -150 1086 -22 81 -40 168 -40 194 0 45 3 51 53 99 68 64 81 74 112 86 40
15 59 71 51 150 -24 261 -410 1167 -807 1892 -291 532 -464 770 -679 933 -36
27 -88 69 -116 94 -71 64 -126 92 -304 151 -352 116 -772 200 -1001 200 -37 0
-114 9 -170 20 -97 18 -253 36 -534 60 -71 6 -137 13 -146 16 -22 6 -36 106
-44 315 -9 195 -6 203 134 354 115 123 180 215 212 299 22 57 39 75 121 133
139 96 272 345 293 548 6 58 -9 212 -21 224 -3 3 -12 -3 -20 -14 -11 -15 -13
-35 -9 -80 13 -124 -43 -335 -104 -397 -57 -57 -113 -62 -131 -13 -11 31 7 65
42 80 64 26 108 103 108 188 0 35 -6 46 -55 94 -44 44 -55 61 -55 87 0 46 26
129 51 160 18 23 28 26 80 26 73 0 131 27 156 73 15 26 19 63 21 211 5 274
-25 474 -107 717 -167 492 -326 662 -753 804 -215 72 -289 86 -483 91 -146 4
-180 2 -240 -15z m-120 -977 c93 -233 195 -385 379 -570 118 -117 200 -185
339 -281 54 -38 58 -56 27 -127 -43 -96 -32 -216 26 -285 34 -41 92 -44 122
-6 30 37 56 156 49 222 l-6 55 82 -6 c99 -8 150 10 155 55 3 22 -5 32 -39 55
-52 35 -58 50 -27 65 20 9 41 4 123 -29 147 -58 143 -49 122 -277 -45 -487
-132 -735 -352 -1010 -84 -105 -440 -451 -526 -511 -80 -56 -155 -79 -254 -78
-99 2 -159 24 -270 101 -267 187 -502 428 -635 652 -73 123 -124 269 -151 429
-13 78 -27 142 -33 142 -8 0 -4 -115 10 -257 6 -61 6 -63 -17 -63 -37 0 -123
55 -162 102 -47 59 -69 104 -122 260 -56 162 -65 211 -56 308 13 130 55 188
126 174 55 -10 101 -56 122 -121 18 -57 44 -83 67 -64 7 6 16 45 19 88 18 221
121 437 321 668 130 151 464 431 503 423 7 -2 34 -53 58 -114z m1455 -1269 c0
-42 -18 -81 -54 -114 -29 -28 -30 -25 -16 50 9 48 41 99 62 99 4 0 8 -16 8
-35z m-5552 -631 c56 -16 78 -16 221 5 66 10 133 -2 172 -29 17 -13 44 -52 64
-94 33 -68 37 -89 70 -352 20 -153 34 -296 32 -317 -11 -83 -99 -145 -192
-134 -25 2 -55 13 -65 22 -24 22 -40 75 -40 132 0 23 -5 54 -12 70 -11 25 -13
15 -18 -87 -5 -104 -9 -119 -33 -156 -59 -88 -165 -135 -221 -99 -36 24 -53
59 -71 147 -17 83 -33 128 -46 128 -12 0 -11 -45 2 -100 26 -110 1 -186 -79
-247 -35 -27 -53 -33 -92 -33 -63 0 -90 11 -140 56 -50 45 -67 76 -80 146 -19
94 -20 98 -29 98 -5 0 -11 -39 -13 -87 -2 -50 -10 -101 -18 -118 -18 -36 -73
-68 -146 -84 -53 -12 -55 -12 -131 26 -128 63 -138 94 -138 423 0 167 2 191
23 252 39 113 94 177 237 277 l58 41 152 -7 c180 -7 227 3 314 70 96 75 118
80 219 51z m3825 -843 c162 -126 213 -158 295 -188 90 -33 171 -39 255 -19 90
21 142 48 338 177 155 102 191 120 203 101 2 -4 6 -106 7 -226 l3 -219 -34
-29 c-37 -32 -169 -101 -235 -125 -22 -8 -101 -25 -175 -37 -121 -21 -150 -23
-280 -16 -184 10 -249 32 -337 113 -99 92 -134 171 -163 377 -21 147 -24 190
-12 190 4 0 65 -45 135 -99z"/>
<path d="M23747 22200 c-104 -27 -172 -103 -111 -127 10 -3 45 1 80 10 79 21
161 22 235 1 99 -28 141 2 81 59 -52 50 -196 79 -285 57z"/>
<path d="M23808 21795 c-42 -23 -73 -98 -73 -180 0 -89 8 -116 46 -160 40 -45
96 -50 128 -10 42 54 54 210 22 280 -31 69 -77 94 -123 70z"/>
<path d="M24236 21747 c52 -114 50 -238 -5 -442 -42 -153 -41 -169 13 -219 54
-51 146 -106 189 -115 47 -10 100 6 146 46 42 35 54 76 27 86 -7 3 -37 -5 -66
-19 -73 -34 -99 -31 -172 19 -100 68 -100 68 -54 251 43 171 44 217 6 303 -22
51 -78 129 -97 137 -6 3 -1 -19 13 -47z"/>
<path d="M23160 21566 c0 -19 -11 -49 -26 -72 -15 -21 -29 -55 -31 -75 -6 -44
19 -136 47 -172 20 -25 95 -55 108 -43 3 3 -16 37 -43 76 -38 55 -48 79 -49
113 l-1 42 38 -3 c33 -3 37 -1 37 20 0 29 -56 148 -70 148 -5 0 -10 -15 -10
-34z"/>
<path d="M24783 20760 c-169 -75 -207 -83 -337 -77 -90 3 -133 11 -228 41 -65
20 -124 36 -133 36 -18 0 -36 -32 -26 -48 10 -17 166 -86 241 -108 93 -26 235
-24 320 5 72 25 255 115 283 139 20 17 23 62 5 62 -7 -1 -63 -23 -125 -50z"/>
<path d="M24420 20441 l-25 -7 22 -12 c30 -16 98 -15 112 2 9 11 7 15 -11 20
-29 7 -65 6 -98 -3z"/>
<path d="M19510 20076 c0 -7 9 -24 20 -37 l19 -24 1 27 c0 17 -7 31 -20 38
-16 8 -20 8 -20 -4z"/>
<path d="M29046 23658 c-235 -10 -278 -19 -308 -59 -28 -38 -41 -154 -35 -314
7 -160 18 -208 53 -231 56 -37 942 5 1033 49 14 6 37 34 52 62 31 59 64 77
129 69 36 -5 50 -2 70 14 23 18 25 27 23 87 -3 139 -22 165 -120 165 -66 0
-107 27 -125 81 -27 82 -36 84 -311 85 -133 1 -341 -3 -461 -8z m163 -87 c34
-34 45 -98 46 -248 0 -116 -3 -145 -16 -158 -12 -12 -55 -18 -193 -26 -154 -8
-181 -8 -201 5 -29 19 -34 50 -37 238 -3 123 0 150 13 163 11 12 50 19 145 26
71 5 138 11 149 13 50 8 76 5 94 -13z"/>
<path d="M18885 23593 c-43 -11 -87 -37 -95 -57 -10 -29 7 -63 39 -75 14 -5
195 -12 402 -15 355 -6 377 -5 393 12 22 25 20 65 -3 86 -36 32 -639 72 -736
49z"/>
<path d="M18836 23170 c-83 -25 -105 -119 -36 -155 59 -31 700 4 758 41 28 18
30 69 4 83 -11 6 -84 10 -163 9 -79 0 -214 7 -299 16 -171 17 -221 19 -264 6z"/>
<path d="M18754 22726 c-51 -23 -60 -78 -18 -117 l26 -24 343 0 c333 0 344 1
372 21 35 26 40 54 14 85 -19 23 -23 24 -138 21 -65 -2 -190 4 -277 12 -193
19 -281 20 -322 2z"/>
<path d="M27852 13913 c-61 -14 -85 -34 -65 -54 10 -10 158 33 188 55 19 15
18 15 -20 15 -22 -1 -68 -7 -103 -16z"/>
<path d="M27658 13835 c-51 -35 -59 -69 -61 -263 -2 -139 1 -176 16 -222 23
-67 58 -103 93 -94 34 9 79 -12 94 -44 15 -33 36 -258 27 -293 -4 -15 -35 -59
-69 -100 -138 -165 -222 -322 -268 -501 -15 -61 -35 -117 -43 -126 -11 -10
-45 -17 -104 -22 -49 -3 -94 -10 -101 -14 -20 -12 -49 -77 -60 -136 -18 -94
-21 -170 -14 -297 7 -109 11 -125 31 -147 29 -30 94 -52 179 -60 78 -7 133
-31 192 -83 97 -86 194 -108 308 -69 69 23 109 16 162 -32 51 -46 60 -79 49
-198 -15 -174 -9 -662 16 -1188 13 -291 27 -531 30 -535 3 -3 10 1 15 8 4 8
10 330 13 715 4 676 15 946 38 971 6 6 58 11 117 12 59 0 116 3 127 5 20 3 20
-3 23 -327 2 -242 -2 -367 -13 -467 -12 -112 -12 -151 -2 -225 6 -48 11 -160
10 -248 -13 -963 -13 -1877 -2 -2025 8 -98 14 -355 15 -635 2 -650 2 -647 17
-643 6 3 18 31 26 63 14 56 13 59 -8 76 l-22 18 21 21 c13 13 20 33 20 59 0
52 46 1091 65 1466 24 477 37 1681 26 2375 -11 680 -15 637 66 718 56 56 88
66 152 46 25 -8 68 -14 94 -14 51 0 74 16 121 85 23 34 72 55 129 55 58 0 155
19 189 36 40 20 56 60 68 161 14 123 12 206 -5 309 -27 151 -62 184 -197 184
-89 0 -92 3 -101 88 -8 69 -34 124 -149 318 -52 88 -99 173 -106 189 -17 45
-21 457 -4 477 7 9 34 19 60 23 98 15 113 42 113 198 -1 86 -4 114 -16 127
-25 24 -35 -3 -35 -92 0 -84 -11 -125 -36 -135 -9 -3 -76 2 -148 12 -213 28
-414 18 -766 -38 -157 -25 -301 -47 -320 -49 l-34 -3 -19 85 c-10 47 -19 130
-20 185 -1 93 1 105 31 169 48 102 41 119 -30 71z m984 -651 c62 -8 129 -23
148 -32 l35 -17 1 -110 c1 -172 18 -280 51 -327 50 -72 110 -174 162 -275 l51
-100 0 -149 c0 -159 -15 -401 -30 -497 -11 -72 -65 -192 -98 -218 -49 -38
-164 -11 -189 44 -7 15 -15 131 -19 288 l-7 264 -19 -43 c-17 -38 -20 -76 -24
-295 -3 -139 -10 -267 -15 -284 -16 -50 -59 -75 -138 -81 -139 -10 -170 39
-181 283 -5 88 -6 183 -4 210 2 28 6 97 8 155 4 93 3 102 -9 80 -8 -14 -18
-54 -24 -90 -5 -36 -15 -99 -21 -140 -7 -41 -15 -150 -20 -242 -8 -182 -15
-205 -68 -231 -68 -35 -145 -27 -194 20 -53 51 -58 91 -58 475 0 193 -4 348
-9 348 -23 0 -31 -41 -40 -229 -14 -258 -14 -396 0 -444 23 -83 -15 -127 -107
-127 -56 0 -174 33 -204 58 -46 38 -66 140 -90 463 -18 262 -11 324 49 434 16
28 47 99 71 159 57 143 139 266 230 343 17 15 65 30 155 48 190 38 189 38 127
45 -30 3 -93 2 -140 -2 -116 -11 -129 -7 -152 48 -27 63 -26 110 3 128 19 12
147 39 232 49 91 11 434 6 537 -9z m630 -1014 c56 -16 83 -55 98 -143 10 -58
10 -86 1 -121 -6 -25 -11 -63 -11 -85 0 -64 -20 -140 -45 -169 -20 -23 -26
-25 -47 -15 -32 14 -48 75 -83 323 l-26 185 22 17 c24 21 40 22 91 8z m-1854
-63 c17 -34 1 -119 -54 -292 -40 -128 -67 -178 -92 -173 -14 3 -18 19 -24 88
-10 139 -9 305 3 339 15 44 63 72 114 69 33 -3 42 -8 53 -31z"/>
<path d="M18100 11900 c0 -5 5 -10 10 -10 6 0 10 5 10 10 0 6 -4 10 -10 10 -5
0 -10 -4 -10 -10z"/>
<path d="M24024 10725 c-9 -22 15 -54 134 -177 120 -124 232 -213 333 -263
118 -60 147 -127 152 -350 2 -108 6 -135 22 -162 23 -39 38 -41 59 -11 20 28
20 70 1 145 -8 32 -19 118 -24 191 -12 153 -28 199 -89 260 -22 22 -71 57
-108 77 -236 128 -273 152 -339 215 -92 88 -129 108 -141 75z"/>
<path d="M4390 8990 c0 -11 13 -80 29 -153 16 -72 50 -238 76 -367 25 -129 53
-262 61 -295 29 -114 85 -273 99 -285 8 -7 15 -18 15 -24 0 -6 19 -31 41 -56
69 -75 68 -59 8 -310 -16 -69 -43 -181 -60 -250 -43 -182 -57 -234 -94 -345
-19 -55 -37 -118 -41 -140 -4 -22 -10 -47 -15 -56 -10 -20 -49 -163 -45 -167
6 -6 66 140 94 229 17 52 41 130 55 174 40 128 155 453 172 486 22 42 61 63
157 83 46 10 258 58 472 107 214 49 393 86 398 83 15 -9 9 -37 -110 -474 -239
-883 -414 -1539 -692 -2600 -192 -731 -431 -1633 -535 -2020 -51 -190 -116
-436 -145 -547 -29 -112 -61 -216 -71 -233 l-19 -30 -192 1 c-342 0 -712 15
-737 29 -22 11 -23 17 -18 69 11 101 174 899 227 1111 29 113 76 277 106 365
30 88 73 225 95 305 22 80 53 187 70 238 32 101 39 164 12 102 -28 -62 -203
-581 -234 -695 -17 -60 -34 -114 -39 -120 -10 -13 -80 -223 -115 -345 -15 -52
-31 -106 -36 -120 -54 -159 -199 -857 -199 -961 l0 -40 123 4 c83 2 135 9 162
20 32 13 78 16 235 17 175 0 199 -2 231 -19 31 -17 67 -21 221 -27 l184 -7 33
29 c33 30 40 48 95 259 13 50 28 115 35 145 17 80 42 117 91 131 42 13 37 13
332 -27 159 -22 156 -24 188 119 34 151 79 327 170 662 27 100 82 295 119 425
17 58 40 139 52 180 12 41 27 95 35 120 7 25 15 61 19 80 3 19 13 55 20 80 18
59 43 152 60 220 7 30 32 123 55 205 23 83 48 173 56 200 13 47 25 90 75 267
12 40 27 98 35 128 13 51 20 80 60 235 16 61 39 146 73 270 10 39 29 106 40
150 12 44 28 103 36 130 8 28 24 86 36 130 12 44 30 107 39 140 40 133 75 263
96 360 7 33 25 103 40 155 14 52 30 111 34 130 4 19 20 80 35 135 15 55 33
125 40 155 7 30 25 100 40 155 15 55 31 118 35 140 11 58 40 170 61 243 11 34
19 73 19 85 0 53 40 142 76 171 l36 28 447 -5 c245 -3 586 -10 756 -17 172 -6
1079 -14 2032 -18 1573 -6 1724 -8 1739 -23 18 -19 51 -126 65 -212 5 -33 11
-63 14 -67 3 -4 20 -68 39 -142 41 -160 102 -386 121 -448 25 -84 53 -184 95
-345 23 -88 48 -180 55 -205 17 -55 45 -148 75 -255 12 -44 31 -107 40 -140
10 -33 34 -121 54 -195 21 -74 46 -164 57 -200 10 -36 19 -70 19 -75 0 -8 49
-182 115 -410 8 -27 23 -79 34 -115 10 -36 41 -144 69 -240 28 -96 67 -236 88
-310 88 -323 125 -452 204 -715 27 -88 65 -221 85 -295 20 -74 43 -157 51
-185 7 -27 39 -147 70 -265 121 -467 135 -509 173 -529 41 -22 146 -23 302 -2
203 27 225 27 243 -1 8 -13 33 -88 55 -168 96 -348 108 -383 139 -395 8 -3 85
-10 171 -15 86 -5 185 -14 221 -20 36 -6 169 -13 295 -16 348 -10 425 8 425
96 0 41 -15 88 -85 265 -50 127 -59 150 -208 585 -52 151 -106 307 -120 345
-36 101 -83 261 -97 325 -11 51 -53 198 -102 350 -24 77 -70 170 -75 154 -2
-6 28 -125 67 -265 40 -140 112 -414 161 -609 79 -318 150 -566 263 -935 21
-66 38 -136 39 -155 l2 -35 -385 -13 c-212 -7 -402 -14 -423 -15 -49 -1 -65
16 -88 99 -39 137 -412 1506 -489 1794 -75 281 -390 1433 -650 2375 -198 721
-319 1148 -381 1354 -33 106 -59 201 -59 211 0 10 8 20 18 22 9 3 141 -24 292
-59 151 -35 338 -75 415 -88 182 -33 207 -40 232 -67 25 -26 111 -267 203
-568 64 -207 84 -260 99 -260 8 0 -4 58 -33 165 -42 154 -61 220 -91 315 -36
113 -62 216 -76 294 -4 27 -15 63 -23 80 -7 17 -17 68 -20 113 -9 97 -3 103
91 103 32 0 68 3 80 6 24 7 53 68 53 113 0 27 -4 30 -50 40 -36 8 -807 11
-2597 11 -1757 0 -2691 4 -3017 12 -689 18 -2933 18 -3004 -1 -50 -12 -56 -12
-79 5 -30 22 -137 281 -184 444 -17 58 -59 193 -94 300 -35 107 -71 224 -80
260 -17 68 -38 110 -55 110 -6 0 -10 -9 -10 -20z"/>
<path d="M13632 8030 c0 -14 2 -19 5 -12 2 6 2 18 0 25 -3 6 -5 1 -5 -13z"/>
</g>
</svg>
