<?xml version="1.0" standalone="no"?>
<!DOCTYPE svg PUBLIC "-//W3C//DTD SVG 20010904//EN"
 "http://www.w3.org/TR/2001/REC-SVG-20010904/DTD/svg10.dtd">
<svg version="1.0" xmlns="http://www.w3.org/2000/svg"
 width="3375.000000pt" height="4219.000000pt" viewBox="0 0 3375.000000 4219.000000"
 preserveAspectRatio="xMidYMid meet">

<g transform="translate(0.000000,4219.000000) scale(0.100000,-0.100000)"
fill="#000000" stroke="none">
<path d="M6885 36108 c-22 -5 -89 -13 -149 -18 -102 -8 -149 -17 -301 -55 -33
-9 -80 -20 -105 -25 -178 -38 -554 -205 -770 -341 -367 -232 -724 -563 -984
-914 -116 -156 -168 -231 -211 -305 -21 -36 -63 -108 -93 -160 -180 -309 -349
-766 -425 -1145 -46 -228 -52 -268 -78 -510 -14 -123 -6 -774 9 -860 6 -33 16
-94 22 -135 22 -160 50 -321 75 -420 82 -331 155 -565 230 -740 20 -47 59
-148 86 -225 28 -77 73 -203 101 -280 27 -77 56 -160 63 -185 7 -25 25 -85 39
-135 14 -49 32 -112 40 -140 42 -142 110 -461 126 -590 43 -350 32 -601 -41
-915 -44 -195 -52 -237 -55 -328 -2 -58 -8 -100 -16 -110 -7 -8 -62 -57 -123
-108 -98 -82 -197 -178 -391 -380 -130 -134 -313 -415 -427 -654 -83 -175
-162 -398 -195 -555 -6 -27 -18 -79 -27 -115 -9 -36 -21 -87 -27 -115 -12 -61
-34 -152 -54 -221 -8 -28 -14 -66 -14 -85 0 -19 -6 -59 -14 -89 -8 -30 -17
-75 -21 -100 -4 -25 -13 -67 -21 -94 -8 -27 -14 -71 -14 -97 0 -25 -7 -66 -15
-89 -8 -23 -15 -64 -15 -89 0 -26 -6 -70 -14 -97 -8 -27 -17 -85 -20 -129 -3
-44 -13 -102 -21 -129 -8 -27 -15 -80 -15 -117 0 -37 -7 -94 -15 -126 -8 -31
-15 -98 -15 -147 0 -49 -6 -117 -14 -150 -8 -34 -17 -124 -19 -201 -3 -77 -10
-153 -17 -170 -7 -18 -13 -117 -15 -258 -3 -159 -9 -246 -20 -286 -21 -83 -22
-1118 -1 -1201 8 -33 16 -137 19 -255 4 -121 12 -228 21 -270 9 -38 16 -106
16 -150 0 -44 7 -102 15 -129 8 -27 15 -79 15 -115 0 -36 7 -91 15 -121 8 -30
15 -74 15 -97 0 -23 7 -64 16 -90 9 -26 20 -73 24 -103 10 -65 33 -185 50
-255 7 -27 19 -79 27 -115 8 -36 23 -92 34 -125 10 -33 33 -107 50 -165 67
-230 231 -597 337 -755 185 -276 363 -448 605 -586 43 -24 105 -61 138 -82 33
-20 66 -37 73 -37 8 0 47 -17 88 -39 40 -21 87 -41 103 -45 95 -21 178 -53
201 -77 l26 -27 -42 -158 c-23 -88 -47 -179 -55 -204 -7 -25 -21 -74 -30 -110
-10 -36 -23 -85 -31 -110 -7 -25 -36 -128 -64 -230 -66 -243 -119 -434 -135
-490 -7 -25 -29 -106 -49 -180 -20 -74 -43 -155 -51 -180 -8 -25 -26 -88 -39
-140 -13 -52 -48 -178 -76 -280 -55 -193 -103 -370 -125 -455 -7 -27 -39 -142
-70 -255 -32 -113 -70 -252 -86 -310 -63 -236 -90 -332 -130 -475 -23 -82 -45
-163 -49 -180 -4 -16 -56 -205 -115 -420 -104 -379 -116 -423 -156 -570 -10
-38 -32 -119 -49 -180 -16 -60 -46 -171 -66 -245 -20 -74 -47 -173 -60 -220
-12 -47 -43 -161 -68 -255 -26 -93 -62 -226 -81 -295 -19 -69 -50 -183 -69
-255 -18 -71 -48 -182 -65 -245 -17 -63 -38 -140 -46 -170 -8 -30 -28 -106
-45 -168 -17 -62 -30 -125 -29 -140 4 -36 -11 -105 -26 -117 -15 -13 -108
-386 -103 -416 2 -19 21 -34 83 -66 44 -23 105 -49 135 -58 30 -10 89 -32 130
-50 78 -34 252 -101 330 -128 25 -8 137 -47 250 -86 113 -38 293 -97 400 -131
107 -33 222 -69 255 -80 33 -10 96 -28 140 -40 44 -12 98 -28 121 -36 22 -8
69 -21 105 -29 35 -8 96 -24 134 -35 69 -20 125 -34 280 -72 44 -11 100 -26
125 -33 25 -8 63 -17 85 -20 22 -3 74 -15 115 -25 201 -52 238 -60 261 -60 14
0 59 -9 100 -20 41 -11 86 -20 100 -20 15 0 53 -8 85 -19 33 -10 88 -22 124
-26 36 -4 88 -13 115 -20 28 -8 77 -17 110 -20 33 -4 82 -13 109 -21 27 -7 85
-17 130 -20 45 -3 103 -12 130 -20 27 -8 85 -17 130 -20 45 -3 100 -12 124
-20 24 -8 92 -17 150 -20 59 -3 132 -12 162 -20 30 -8 111 -17 180 -20 69 -3
148 -12 175 -20 31 -9 120 -17 235 -20 111 -3 219 -12 270 -22 76 -15 182 -17
985 -17 717 0 908 3 940 13 22 8 126 17 235 22 112 5 216 15 245 24 28 7 104
17 170 20 66 3 142 13 169 21 27 8 74 15 105 15 31 0 85 7 121 15 36 9 101 20
145 25 44 6 100 17 125 24 25 8 72 17 105 20 33 3 89 14 124 26 35 11 79 20
97 20 19 0 51 6 71 14 21 8 63 17 93 21 30 3 82 14 115 24 73 23 125 36 230
61 44 10 112 28 150 40 39 12 88 26 110 31 22 6 81 24 130 40 50 17 108 35
130 41 22 6 83 26 135 45 52 19 118 40 145 48 56 15 316 111 385 142 25 12 56
24 70 28 14 4 57 23 97 41 40 19 76 34 80 34 4 0 46 18 93 39 47 22 137 63
200 92 185 84 513 254 718 373 149 86 182 106 262 156 47 29 105 65 130 80
143 85 180 120 180 168 0 17 -38 141 -140 462 -52 163 -120 384 -150 485 -10
33 -32 110 -50 170 -17 61 -434 1404 -927 2985 l-895 2875 30 65 c17 36 47
117 68 180 56 172 91 257 142 344 155 260 415 471 846 682 110 55 121 63 162
120 24 33 55 66 69 72 14 7 32 27 40 45 l14 32 1 -32 c0 -17 6 -44 12 -60 9
-20 14 -152 19 -458 4 -263 11 -446 17 -470 6 -22 14 -101 17 -175 6 -135 23
-281 51 -418 7 -40 14 -85 14 -100 0 -62 102 -436 167 -612 119 -323 330 -590
604 -765 112 -71 224 -135 238 -135 7 0 45 -16 86 -35 41 -19 104 -39 140 -45
64 -10 98 -21 197 -61 29 -12 71 -19 110 -19 35 0 90 -7 123 -15 87 -21 974
-21 1090 0 44 8 124 14 178 15 77 0 105 4 133 19 20 11 62 23 93 27 31 3 81
13 111 20 30 8 79 14 110 14 33 0 72 8 99 20 60 28 190 60 243 60 42 1 55 5
168 50 30 12 89 28 130 35 41 8 112 27 157 44 45 17 106 33 135 37 29 4 62 13
73 20 11 7 58 25 105 39 47 15 106 38 131 51 53 27 76 29 101 10 38 -28 48
-80 54 -274 3 -108 11 -206 19 -232 7 -25 16 -96 20 -158 3 -63 11 -125 16
-140 5 -14 12 -68 15 -121 4 -53 12 -118 20 -145 8 -27 14 -87 14 -132 0 -45
7 -118 15 -161 21 -112 21 -979 0 -1068 -8 -33 -15 -105 -15 -160 0 -57 -7
-126 -15 -158 -8 -32 -15 -79 -15 -105 0 -26 -7 -74 -15 -106 -9 -33 -18 -93
-22 -135 -3 -42 -12 -93 -20 -115 -7 -21 -13 -57 -13 -80 0 -22 -7 -63 -15
-90 -8 -27 -15 -72 -15 -100 0 -29 -7 -77 -15 -109 -40 -153 -37 -497 5 -634
34 -109 105 -221 195 -304 52 -49 170 -129 189 -129 6 0 29 -12 51 -27 22 -15
66 -40 97 -55 85 -41 85 -36 3 -308 -21 -69 -59 -197 -85 -285 -26 -88 -59
-198 -73 -245 -45 -146 -123 -410 -162 -545 -20 -71 -53 -184 -72 -250 -101
-346 -97 -332 -257 -905 -45 -159 -145 -546 -162 -625 -7 -33 -17 -78 -23
-100 -40 -161 -42 -174 -27 -203 8 -16 32 -39 53 -53 54 -34 571 -290 586
-289 4 0 39 -15 76 -34 120 -59 484 -216 501 -216 6 0 43 -14 83 -31 40 -17
117 -46 172 -66 101 -36 193 -69 320 -116 39 -14 88 -30 110 -36 38 -9 109
-32 369 -118 61 -20 128 -40 150 -44 23 -4 61 -14 86 -22 78 -26 235 -69 335
-92 33 -8 80 -21 104 -30 24 -8 53 -15 66 -15 12 0 51 -8 86 -19 94 -27 235
-60 304 -71 69 -11 180 -33 275 -55 36 -9 99 -20 141 -25 41 -5 87 -14 102
-19 15 -6 57 -13 94 -17 38 -3 91 -12 118 -20 28 -8 91 -17 140 -20 50 -3 113
-13 140 -21 28 -8 102 -17 165 -20 63 -3 135 -12 159 -19 24 -8 120 -19 220
-24 97 -5 192 -14 211 -20 20 -7 171 -15 360 -20 179 -5 352 -14 385 -19 79
-12 715 -12 785 0 30 6 190 14 355 18 197 6 310 13 330 21 17 7 111 16 215 21
113 5 203 13 230 22 25 8 93 17 151 21 59 3 120 11 135 17 16 6 74 15 129 19
55 5 136 18 179 29 44 12 96 21 117 21 20 0 56 7 79 15 23 8 63 15 89 15 25 0
91 11 146 24 165 40 197 47 280 61 44 8 100 21 125 29 64 22 212 56 238 56 22
0 115 27 210 61 30 10 67 19 83 19 15 0 81 18 145 40 65 22 127 40 138 40 12
0 66 16 121 36 55 19 129 43 165 53 36 10 95 30 131 44 36 13 81 28 100 32 44
9 228 76 344 125 50 21 107 41 129 45 21 3 49 17 62 30 20 20 24 34 24 86 0
34 -7 98 -15 143 -8 44 -20 122 -26 171 -6 50 -18 128 -25 175 -8 47 -20 132
-28 190 -24 173 -37 261 -51 335 -7 39 -19 113 -25 165 -6 52 -18 136 -25 185
-8 50 -20 126 -26 170 -10 81 -29 201 -50 330 -6 39 -15 106 -20 150 -5 44
-13 100 -18 125 -6 25 -13 70 -16 100 -3 30 -12 93 -20 140 -8 47 -22 139 -31
205 -9 66 -20 143 -25 170 -5 28 -14 86 -19 130 -9 81 -32 230 -52 340 -5 33
-14 94 -18 137 -4 42 -13 107 -19 145 -39 240 -42 275 -28 297 14 20 64 54
199 132 32 18 75 45 95 61 73 53 226 198 263 248 83 113 260 431 260 468 0 7
13 39 29 73 16 34 32 76 36 95 4 19 19 68 35 109 16 41 31 95 34 120 3 25 19
87 36 139 16 51 30 104 30 118 0 13 6 52 14 86 32 140 45 217 56 307 22 199
39 316 49 350 6 19 11 100 11 180 0 80 5 172 11 205 5 33 14 170 19 305 5 135
14 265 20 290 8 31 15 271 20 750 15 1181 28 1714 45 1816 10 61 15 163 16
305 0 118 4 237 10 264 5 28 13 116 19 197 5 81 14 158 21 170 7 13 16 79 20
148 4 69 10 133 14 142 4 10 3 18 -1 18 -5 0 -127 -116 -271 -258 -282 -277
-316 -321 -368 -471 -29 -83 -48 -207 -40 -266 3 -22 10 -157 15 -300 6 -143
17 -393 26 -555 26 -503 22 -578 -36 -706 -113 -251 -363 -425 -609 -425 -47
1 -108 7 -136 15 -45 12 -451 204 -1018 480 -263 128 -331 143 -495 110 -102
-20 -143 -40 -517 -254 -176 -101 -403 -230 -505 -288 -102 -57 -211 -120
-244 -138 -55 -33 -49 -25 131 163 237 247 346 367 508 558 661 781 1326 1734
1912 2740 270 464 543 973 543 1013 0 22 -40 62 -62 62 -37 0 -52 -18 -110
-134 -369 -736 -1077 -1885 -1632 -2646 -525 -719 -1079 -1354 -1586 -1818
l-114 -105 -81 6 c-142 11 -267 68 -357 165 -62 67 -110 155 -128 232 -28 118
-16 204 110 830 153 758 163 813 162 915 0 118 -21 201 -74 296 -39 69 -141
173 -775 788 -407 395 -421 410 -470 512 -51 105 -68 187 -68 314 1 123 20
199 81 322 85 173 253 317 419 362 22 5 346 67 720 136 926 171 905 167 1003
216 95 48 200 140 267 234 25 34 121 217 214 406 346 704 619 1248 655 1302
85 128 238 243 395 296 74 25 224 30 306 10 150 -36 301 -161 374 -310 23 -46
75 -181 116 -299 40 -118 102 -294 135 -390 34 -96 108 -310 165 -475 165
-480 168 -487 258 -582 103 -109 181 -141 419 -173 89 -12 192 -26 228 -31 36
-4 133 -17 215 -29 83 -11 233 -31 335 -45 448 -61 437 -60 455 -45 18 15 91
165 102 210 4 14 18 50 31 80 14 30 36 84 49 120 47 124 81 215 103 280 12 36
35 99 50 140 16 41 33 95 38 120 6 25 22 76 36 113 14 37 26 79 26 91 0 13 16
73 35 133 19 59 35 119 35 133 0 14 12 66 26 115 14 50 29 128 34 175 6 47 13
92 16 100 3 8 10 55 15 104 5 48 16 113 25 144 25 84 25 966 1 1068 -24 101
-57 275 -57 304 0 14 -12 61 -26 105 -13 44 -29 103 -35 130 -11 57 -57 188
-99 285 -90 203 -120 266 -178 370 -142 256 -248 402 -432 593 -174 182 -430
401 -578 495 -24 15 -67 44 -95 65 -28 20 -55 37 -60 37 -4 0 -35 18 -67 40
-32 22 -63 40 -68 40 -5 0 -36 17 -69 38 -85 53 -409 212 -433 212 -5 0 -29 9
-52 20 -24 10 -74 31 -113 45 -38 15 -108 41 -155 59 -106 41 -172 64 -230 80
-25 7 -56 18 -67 25 -12 6 -31 11 -42 11 -12 0 -47 9 -78 19 -32 11 -78 23
-102 26 -24 4 -58 13 -75 20 -17 7 -57 16 -89 20 -32 3 -73 13 -91 20 -17 7
-61 17 -96 21 -36 4 -78 13 -95 19 -16 7 -59 16 -95 20 -36 4 -91 16 -122 26
-33 11 -86 19 -125 19 -37 1 -86 8 -108 16 -22 8 -94 19 -160 23 -79 5 -131
14 -152 24 -24 13 -60 17 -145 17 -62 0 -119 4 -127 9 -10 6 -39 -4 -95 -34
-209 -113 -454 -185 -786 -231 -158 -21 -637 -30 -822 -15 -322 27 -717 90
-983 157 -139 35 -133 32 -140 65 -4 18 -16 35 -31 41 -23 11 -24 14 -26 157
l-3 146 -100 50 c-55 28 -116 61 -135 75 -40 28 -125 76 -220 121 -44 22 -89
34 -140 39 -41 5 -90 14 -107 21 -27 11 -41 11 -80 1 -380 -102 -1397 -855
-1638 -1212 -32 -47 -35 -59 -35 -124 -1 -46 -6 -78 -15 -90 -8 -11 -15 -37
-15 -57 l0 -37 -107 -52 c-59 -28 -118 -53 -132 -57 -14 -3 -44 -18 -66 -33
-22 -15 -67 -40 -100 -57 -109 -55 -194 -101 -222 -121 -15 -11 -46 -28 -68
-39 -49 -24 -144 -82 -205 -123 -113 -77 -180 -120 -185 -120 -3 0 -33 -20
-67 -45 -35 -25 -112 -80 -171 -123 -60 -42 -125 -91 -145 -108 -35 -29 -144
-108 -244 -176 -174 -119 -492 -371 -642 -508 -39 -36 -89 -79 -111 -95 -22
-16 -88 -74 -146 -129 -58 -56 -159 -148 -223 -206 -65 -58 -168 -151 -229
-207 -62 -56 -131 -116 -154 -135 -23 -18 -74 -60 -112 -93 -38 -33 -96 -79
-128 -103 -32 -24 -78 -58 -103 -76 -25 -18 -61 -41 -80 -51 -19 -10 -55 -31
-79 -48 -24 -16 -60 -33 -80 -38 -49 -11 -101 -1 -101 20 0 17 -55 81 -71 81
-14 0 -11 83 7 131 9 27 17 94 20 169 3 69 12 165 20 214 8 49 14 133 14 185
1 53 7 123 15 156 20 83 21 442 1 488 -8 18 -38 50 -72 74 -76 55 -181 124
-217 143 -16 8 -39 26 -51 41 -62 73 -454 259 -756 357 -353 115 -721 166
-1017 142 -266 -21 -408 -54 -565 -129 -57 -26 -130 -60 -163 -75 -209 -94
-310 -160 -319 -209 -2 -12 -9 -49 -16 -82 -7 -33 -16 -87 -21 -120 -5 -33
-14 -76 -21 -95 -6 -19 -14 -62 -18 -95 -8 -65 -23 -142 -46 -245 -8 -36 -14
-85 -15 -110 0 -25 -4 -65 -10 -90 -6 -25 -16 -81 -24 -125 -8 -44 -19 -96
-24 -115 -6 -19 -11 -60 -11 -91 0 -31 -7 -76 -15 -99 -8 -23 -15 -63 -15 -87
0 -25 -7 -75 -15 -112 -8 -36 -19 -104 -24 -151 -11 -96 -25 -188 -47 -305 -8
-44 -14 -105 -14 -135 0 -31 -6 -80 -14 -110 -7 -30 -16 -89 -20 -131 -3 -42
-10 -89 -17 -105 -6 -16 -13 -69 -16 -119 -3 -49 -11 -112 -19 -139 -8 -27
-14 -84 -14 -125 0 -42 -5 -94 -10 -116 -6 -22 -15 -94 -20 -159 -7 -82 -16
-132 -30 -160 -13 -27 -23 -83 -31 -164 -7 -67 -13 -121 -15 -119 -1 1 -8 67
-14 147 -8 93 -19 163 -32 195 -24 62 -58 294 -58 395 0 41 -5 91 -10 110 -23
80 -60 278 -60 323 0 27 -6 72 -14 100 -26 101 -45 193 -50 247 -2 30 -16 98
-31 150 -15 52 -31 120 -36 150 -5 30 -18 87 -29 125 -11 39 -25 93 -31 120
-15 71 -65 253 -99 365 -16 52 -32 109 -36 125 -3 17 -19 66 -34 110 -15 44
-44 132 -64 195 -21 63 -47 138 -58 165 -20 47 -40 101 -108 285 -15 41 -44
113 -65 160 -34 80 -57 131 -125 290 -23 53 -91 189 -258 515 -8 17 -28 49
-44 72 -15 23 -28 46 -28 51 0 5 -16 33 -35 61 -19 28 -35 54 -35 59 0 4 -27
48 -61 98 -34 49 -68 102 -76 118 -15 29 -195 279 -303 421 -73 97 -329 387
-396 451 -77 72 -75 79 49 211 156 165 242 302 287 459 16 55 20 100 20 216 0
241 -40 363 -271 829 -77 155 -149 303 -158 328 -10 25 -38 96 -63 156 -50
124 -186 541 -213 655 -10 41 -24 95 -31 120 -16 52 -74 299 -98 415 -10 44
-25 118 -36 165 -10 47 -25 119 -34 160 -8 41 -20 98 -26 125 -6 28 -15 74
-20 104 -5 30 -16 82 -24 115 -28 115 -44 264 -76 721 -5 72 -14 155 -20 185
-5 30 -15 118 -20 195 -6 77 -15 158 -20 180 -5 22 -10 59 -10 82 0 24 -6 78
-14 120 -8 43 -19 114 -25 158 -6 44 -18 114 -26 155 -8 41 -19 102 -25 135
-41 222 -92 437 -161 670 -26 89 -117 335 -164 445 -222 520 -526 886 -908
1093 -146 80 -414 167 -515 167 -26 1 -76 7 -112 15 -36 8 -108 15 -160 15
-52 0 -133 8 -180 16 -47 9 -103 20 -125 24 -22 4 -103 35 -180 70 -174 77
-254 109 -425 170 -155 54 -456 140 -515 147 -22 3 -56 11 -76 18 -20 8 -65
17 -100 20 -35 4 -84 13 -107 21 -24 8 -103 19 -175 24 -73 5 -154 14 -182 19
-63 12 -516 12 -570 -1z m2185 -2238 c143 -244 205 -327 283 -377 81 -53 170
-67 366 -60 160 6 217 13 566 72 88 15 194 28 235 29 l75 1 21 -150 c12 -82
34 -240 48 -350 28 -214 74 -454 107 -563 12 -37 50 -145 86 -241 118 -318
153 -485 160 -766 5 -175 2 -216 -17 -330 -69 -410 -281 -778 -609 -1056 -397
-339 -935 -556 -1476 -596 l-100 -8 -3 -488 -2 -488 -70 -45 c-119 -77 -321
-159 -364 -148 -14 3 -39 -3 -67 -18 -41 -21 -56 -23 -199 -23 -161 0 -209 7
-332 51 -151 53 -298 145 -425 267 l-63 60 0 618 0 617 -77 48 c-389 240 -749
611 -987 1017 -46 77 -62 97 -74 92 -148 -61 -177 -68 -307 -73 -147 -4 -222
8 -329 57 -250 113 -436 350 -517 656 -32 124 -37 350 -10 477 73 348 295 601
596 679 89 24 257 25 340 4 144 -38 250 -96 361 -199 90 -82 198 -240 240
-350 34 -89 24 -88 164 -13 206 109 498 312 760 527 60 50 138 106 172 124
124 68 284 103 592 131 304 28 434 57 528 116 57 37 89 77 115 149 55 148 56
345 2 680 -17 109 -81 404 -96 449 -4 9 48 -90 114 -219 66 -129 153 -291 193
-360z m-66 -5873 c33 -33 40 -98 21 -188 -26 -128 -83 -221 -178 -292 -72 -54
-110 -71 -271 -117 -77 -23 -152 -49 -166 -58 -72 -46 -252 -210 -270 -247
-11 -23 -29 -105 -41 -193 l-23 -153 -75 6 c-68 6 -79 5 -103 -15 -33 -25 -36
-58 -9 -91 18 -23 21 -23 427 -39 382 -15 412 -18 459 -39 95 -42 159 -130
171 -233 3 -29 -1 -254 -10 -499 -9 -245 -16 -462 -16 -482 0 -31 -4 -37 -20
-37 -20 0 -20 4 -15 163 3 89 10 241 15 337 16 307 -12 416 -134 528 -26 24
-76 57 -111 73 -54 26 -82 31 -192 39 -198 14 -717 32 -735 25 -8 -3 -21 -18
-27 -32 -14 -31 0 -78 27 -88 10 -3 186 -13 392 -20 206 -8 398 -19 426 -25
111 -23 181 -95 211 -215 14 -59 14 -107 -1 -557 -9 -271 -19 -494 -21 -496
-16 -17 -164 71 -186 111 -4 7 8 91 27 187 64 328 66 346 55 416 -25 163 -138
292 -298 339 -48 14 -463 93 -538 102 -31 4 -45 0 -62 -17 -28 -25 -30 -71 -5
-92 10 -9 129 -36 292 -67 151 -29 295 -61 320 -72 97 -43 160 -138 160 -241
0 -51 -163 -938 -176 -960 -3 -4 -16 -8 -30 -8 -34 0 -123 90 -153 154 -12 27
-47 152 -77 278 -30 126 -59 238 -64 249 -23 42 -104 31 -116 -17 -6 -22 69
-359 107 -482 15 -47 17 -67 9 -77 -6 -7 -20 -50 -31 -95 -27 -114 -88 -228
-164 -303 -120 -121 -250 -176 -438 -184 -111 -5 -119 -7 -137 -31 -26 -32
-25 -45 3 -77 21 -25 27 -26 117 -26 125 0 192 13 310 61 127 50 272 176 343
298 36 62 87 181 87 205 0 28 14 25 58 -13 25 -22 49 -40 53 -40 18 0 7 -45
-55 -237 -36 -109 -79 -247 -96 -308 -17 -60 -55 -193 -85 -295 -50 -173 -96
-331 -375 -1300 -262 -908 -306 -1060 -380 -1315 -44 -148 -111 -382 -150
-519 -104 -369 -152 -474 -294 -644 -212 -254 -518 -403 -861 -419 -201 -9
-378 25 -550 107 -423 202 -685 620 -685 1095 0 112 29 267 72 385 19 53 766
1603 1416 2940 44 91 102 212 130 270 27 58 122 255 211 438 88 183 215 462
281 620 243 577 225 536 475 1092 75 168 197 442 272 610 168 380 202 445 261
504 90 90 132 107 497 190 158 37 493 117 590 141 75 20 103 18 129 -8z m891
-1816 c50 -22 91 -69 105 -119 12 -46 12 -48 -1 -95 -22 -82 -42 -95 -414
-290 -121 -63 -289 -151 -374 -196 -84 -45 -154 -81 -155 -79 -1 2 3 145 9
318 l10 315 65 3 c74 3 185 29 450 106 203 59 245 65 305 37z m5163 -14492
c-3 -8 -7 -3 -11 10 -4 17 -3 21 5 13 5 -5 8 -16 6 -23z"/>
<path d="M9846 32577 c-22 -12 -53 -39 -70 -60 -27 -34 -31 -46 -31 -101 0
-52 5 -70 28 -104 80 -122 276 -103 326 31 60 157 -111 315 -253 234z"/>
<path d="M5411 32441 c-11 -11 -21 -32 -21 -46 0 -44 29 -61 114 -68 152 -13
272 -58 357 -134 44 -40 109 -129 109 -149 0 -5 -46 -9 -103 -10 -117 -1 -207
-25 -279 -76 -113 -79 -162 -185 -103 -224 36 -24 69 -11 105 42 66 96 156
130 319 122 50 -2 93 -7 97 -11 14 -14 4 -199 -16 -295 -25 -126 -25 -137 2
-156 33 -23 75 -20 92 7 19 31 43 142 55 263 22 218 -28 406 -144 542 -96 111
-291 197 -475 209 -80 5 -89 4 -109 -16z"/>
<path d="M8269 32407 c-99 -53 -132 -163 -77 -258 59 -101 197 -121 281 -41
95 89 75 232 -41 295 -61 33 -105 34 -163 4z"/>
<path d="M9161 32244 c-27 -34 -27 -60 2 -84 175 -152 217 -212 225 -320 4
-58 1 -76 -22 -126 -15 -32 -41 -76 -60 -98 -43 -55 -49 -72 -31 -106 16 -31
44 -45 74 -35 27 8 97 104 134 183 29 61 32 75 32 167 0 96 -2 104 -38 177
-43 88 -107 163 -191 225 -67 50 -96 54 -125 17z"/>
<path d="M9817 31316 c-188 -180 -372 -254 -602 -243 -138 7 -243 34 -365 94
-132 65 -137 67 -166 38 -26 -26 -31 -62 -11 -87 18 -24 133 -84 223 -117 126
-46 235 -65 362 -63 244 3 450 91 635 270 65 64 77 81 77 108 0 23 -8 38 -26
53 -15 12 -32 21 -38 21 -7 0 -47 -33 -89 -74z"/>
<path d="M26278 35919 c-102 -4 -210 -12 -240 -18 -29 -6 -102 -15 -163 -21
-60 -6 -135 -17 -165 -25 -30 -8 -67 -15 -83 -15 -32 0 -258 -44 -332 -64 -27
-8 -66 -17 -87 -20 -118 -21 -674 -195 -893 -281 -60 -23 -164 -60 -230 -80
-551 -171 -1022 -443 -1301 -751 -206 -228 -307 -417 -389 -729 -60 -230 -75
-336 -75 -545 0 -167 3 -204 20 -259 29 -93 72 -167 151 -262 38 -46 104 -126
146 -178 95 -116 200 -196 351 -268 339 -162 506 -279 614 -429 l29 -41 87 44
c126 62 222 85 362 86 129 1 198 -14 320 -66 369 -160 615 -575 612 -1032 -3
-342 -150 -656 -389 -833 -72 -53 -163 -101 -228 -122 -22 -7 -44 -16 -49 -21
-10 -9 20 -63 125 -220 168 -251 287 -384 739 -821 604 -585 740 -698 967
-805 104 -49 185 -71 413 -108 85 -14 193 -32 240 -41 47 -9 126 -16 175 -17
108 -2 190 23 287 85 73 47 251 223 464 458 237 263 360 372 458 407 22 7 68
29 102 48 34 19 67 35 73 35 22 0 365 173 444 224 204 132 348 280 432 446 42
82 220 560 280 750 62 198 115 444 115 534 0 29 5 78 11 107 6 30 12 173 14
319 3 286 -3 244 78 605 100 452 140 817 118 1075 -33 377 -65 528 -167 783
-212 532 -476 912 -887 1278 -227 202 -563 410 -847 524 -150 61 -330 123
-405 140 -33 7 -89 20 -125 29 -173 41 -252 56 -298 56 -28 0 -81 7 -117 15
-36 9 -157 20 -268 25 -220 10 -216 10 -489 -1z"/>
<path d="M24190 31745 c-134 -27 -225 -73 -311 -159 -170 -169 -198 -469 -78
-831 39 -117 61 -149 98 -140 31 7 61 40 61 66 0 10 -13 57 -29 106 -52 157
-53 152 20 228 42 44 85 76 128 98 61 30 73 32 166 31 78 0 114 -5 164 -23 63
-23 63 -23 90 -4 32 24 39 68 15 94 -43 48 -235 86 -345 68 -106 -17 -196 -59
-270 -126 l-39 -35 0 69 c0 173 79 316 211 383 53 28 205 60 282 60 44 0 62 5
77 20 24 24 26 57 4 88 -14 20 -23 22 -97 21 -45 0 -111 -7 -147 -14z"/>
<path d="M19509 28932 c-113 -59 -177 -212 -134 -323 4 -10 -5 -19 -29 -27
-57 -21 -109 -66 -145 -126 -29 -48 -35 -68 -40 -144 l-6 -87 -213 -282 c-230
-304 -238 -320 -181 -352 53 -30 67 -17 274 260 l196 260 62 -49 c58 -46 226
-158 497 -332 63 -40 213 -138 333 -218 226 -150 277 -174 309 -145 25 22 23
65 -4 90 -13 12 -180 123 -373 248 -192 125 -434 285 -537 356 -164 114 -189
134 -208 175 -27 54 -23 121 7 163 26 34 88 69 139 77 43 6 50 3 932 -380 172
-75 324 -136 337 -136 37 0 67 35 63 73 -4 38 34 20 -743 354 -275 118 -510
224 -521 235 -46 42 -36 127 22 177 41 36 73 39 141 12 26 -10 329 -121 672
-246 409 -148 632 -225 646 -221 27 7 50 56 40 86 -8 26 -25 34 -255 116 -203
72 -572 207 -830 304 -280 105 -293 110 -346 110 -37 0 -67 -8 -105 -28z"/>
<path d="M19318 27343 c-25 -6 -490 -718 -486 -744 2 -12 15 -31 29 -42 55
-40 63 -31 310 344 125 190 231 357 234 372 5 20 1 32 -19 51 -25 26 -34 28
-68 19z"/>
<path d="M28342 21652 c-16 -16 -20 -42 -26 -168 -34 -728 -211 -1641 -457
-2360 -222 -649 -490 -1170 -859 -1671 -109 -147 -115 -166 -68 -205 35 -30
54 -21 111 50 756 956 1235 2306 1381 3892 9 91 19 226 22 301 7 130 6 137
-15 158 -26 26 -65 27 -89 3z"/>
</g>
</svg>
