<?xml version="1.0" standalone="no"?>
<!DOCTYPE svg PUBLIC "-//W3C//DTD SVG 20010904//EN"
 "http://www.w3.org/TR/2001/REC-SVG-20010904/DTD/svg10.dtd">
<svg version="1.0" xmlns="http://www.w3.org/2000/svg"
 width="1280.000000pt" height="720.000000pt" viewBox="0 0 1280.000000 720.000000"
 preserveAspectRatio="xMidYMid meet">

<g transform="translate(0.000000,720.000000) scale(0.100000,-0.100000)"
fill="#000000" stroke="none">
<path d="M4013 5573 l-153 -4 -1 -57 c-1 -31 -5 -82 -9 -112 -6 -45 -8 -34 -6
57 0 61 -2 109 -5 107 -7 -4 -15 -87 -25 -254 -6 -99 2 -122 11 -30 3 29 8 56
11 59 7 7 -2 -96 -15 -174 l-8 -50 -3 45 c-2 45 -2 45 -17 -25 -8 -38 -16 -79
-18 -90 -2 -11 -8 -33 -14 -48 -6 -16 -10 -40 -10 -55 1 -21 4 -17 13 18 7 25
15 52 19 60 3 8 11 31 16 50 l11 35 -4 -35 c-2 -19 -12 -62 -21 -95 -9 -33
-23 -87 -30 -120 -8 -33 -26 -91 -40 -128 -14 -37 -25 -76 -25 -87 0 -11 -4
-20 -10 -20 -5 0 -10 -6 -10 -12 0 -7 -9 -31 -20 -53 -18 -36 -20 -37 -15 -10
4 22 -3 14 -25 -29 -33 -65 -33 -66 -22 -66 4 0 13 15 21 33 7 17 15 26 18 20
2 -7 -5 -30 -16 -50 -11 -21 -29 -58 -40 -83 -37 -81 -111 -203 -118 -196 -3
2 12 32 31 67 20 34 35 63 33 66 -3 2 -26 -33 -52 -79 -26 -46 -63 -104 -81
-130 -19 -27 -29 -48 -24 -48 6 0 19 14 28 31 23 43 53 81 59 75 2 -2 -7 -23
-22 -45 l-26 -42 43 22 c24 12 54 29 68 39 52 36 185 82 252 87 60 5 74 3 124
-23 34 -17 71 -47 93 -74 44 -55 102 -112 166 -165 121 -100 146 -141 153
-256 7 -121 -40 -282 -161 -553 -21 -48 -22 -60 -19 -310 6 -412 -24 -559
-114 -559 -47 1 -70 38 -103 170 -25 97 -32 154 -38 273 -6 138 -12 172 -26
136 -3 -7 -8 -35 -12 -62 -7 -50 -23 -114 -95 -377 -66 -242 -122 -323 -203
-294 -52 18 -56 65 -32 307 8 80 21 198 30 263 9 65 15 130 13 145 -3 27 -3
26 -28 -13 -14 -22 -27 -44 -29 -50 -2 -5 -18 -28 -36 -50 -40 -51 -104 -154
-140 -225 -47 -95 -146 -249 -172 -270 -64 -50 -103 -12 -103 98 0 88 31 177
126 357 41 77 72 154 88 214 14 52 24 96 23 98 -2 1 -82 -74 -178 -168 -210
-207 -348 -309 -416 -309 -34 0 -46 5 -59 25 -29 44 -4 132 58 203 16 18 51
68 79 109 28 42 74 104 103 137 29 34 68 84 86 111 19 28 55 75 80 107 108
134 200 329 181 381 -16 42 -36 50 -104 43 -34 -4 -71 -15 -82 -24 -19 -16
-19 -16 -6 1 19 24 1 21 -31 -6 l-28 -22 38 3 c44 3 85 -16 90 -42 5 -21 -22
-109 -46 -158 -36 -69 -158 -242 -211 -299 -91 -96 -221 -146 -316 -120 -51
13 -130 64 -191 121 -27 25 -45 37 -42 28 4 -10 1 -19 -7 -22 -8 -3 -15 0 -17
6 -3 8 -20 4 -52 -11 -26 -13 -45 -25 -42 -28 2 -2 24 6 47 18 32 16 40 17 31
6 -8 -9 -29 -21 -49 -28 l-35 -11 29 -30 c15 -17 52 -46 81 -65 39 -25 52 -40
52 -58 0 -75 -145 -8 -215 99 -14 20 -21 24 -31 15 -11 -9 -15 -7 -20 5 -3 9
-11 13 -18 9 -6 -4 -15 -8 -21 -9 -5 -1 -75 -20 -155 -42 -80 -23 -178 -46
-218 -53 -40 -7 -75 -16 -78 -21 -7 -11 10 -10 75 6 31 8 76 17 101 20 40 5
42 4 15 -5 -57 -19 -208 -49 -244 -48 -34 2 -34 2 -6 6 17 3 34 9 39 13 5 6
-5 7 -25 4 -19 -3 -61 -9 -94 -13 l-60 -9 45 -2 45 -3 -50 -8 c-27 -5 -98 -12
-157 -15 l-107 -7 -3 -96 c-2 -53 -5 -187 -6 -297 -3 -243 9 -317 73 -452 80
-167 234 -292 430 -349 56 -17 163 -18 1500 -21 1425 -3 1441 -3 1531 18 208
48 368 171 458 354 70 144 66 41 66 1609 l0 1416 -26 83 c-67 214 -225 374
-441 446 -74 24 -90 25 -313 27 -129 1 -304 0 -387 -2z m379 -1720 c10 -17 26
-69 34 -114 19 -101 8 -199 -32 -266 -27 -47 -25 -46 -48 -37 -21 8 -20 25 4
102 28 90 26 184 -5 268 -14 36 -22 70 -19 76 11 18 48 3 66 -29z m161 -60
c43 -96 19 -253 -41 -261 -30 -5 -35 15 -17 73 18 59 19 130 4 174 -25 72 22
84 54 14z m-2513 -793 c0 -5 -12 -10 -27 -9 -25 0 -26 1 -8 9 27 12 35 12 35
0z m-85 -25 c-24 -12 -26 -14 -10 -16 11 -1 24 -1 28 0 5 1 6 -3 3 -8 -4 -5
17 -32 45 -60 54 -53 61 -84 21 -89 -36 -5 -122 85 -122 127 0 17 -1 31 -2 31
-2 0 -25 -7 -52 -15 -27 -8 -59 -15 -70 -14 -13 0 -8 4 14 10 19 6 49 16 65
24 35 15 63 23 90 23 15 0 12 -3 -10 -13z"/>
<path d="M5930 4902 c-151 -36 -268 -123 -324 -242 -59 -125 -38 -266 56 -380
69 -84 151 -123 393 -185 173 -44 218 -65 239 -109 20 -42 20 -50 1 -86 -26
-50 -86 -73 -198 -78 -149 -7 -221 21 -310 117 -21 22 -42 41 -46 41 -13 0
-184 -114 -199 -133 -16 -19 -5 -46 42 -95 48 -53 125 -97 227 -133 92 -32 97
-33 274 -33 151 -1 189 2 235 18 144 49 238 125 286 229 26 55 29 73 29 162 0
90 -3 106 -29 159 -35 71 -92 131 -162 168 -28 15 -133 50 -235 78 -202 55
-248 72 -278 104 -49 53 -25 122 55 158 38 16 62 19 138 16 103 -3 154 -23
219 -86 38 -37 38 -37 67 -20 76 44 170 122 170 143 0 48 -137 140 -261 175
-105 30 -288 36 -389 12z"/>
<path d="M3731 4863 c-7 -26 -20 -67 -28 -91 -9 -23 -13 -45 -11 -48 7 -7 61
163 56 177 -2 5 -9 -12 -17 -38z"/>
<path d="M6704 4887 c-2 -7 -3 -67 -2 -133 l3 -119 139 -3 c95 -2 143 1 152 9
12 9 14 38 12 133 l-3 121 -148 3 c-116 2 -149 0 -153 -11z"/>
<path d="M3672 4675 c-14 -31 -15 -35 -3 -35 8 0 23 51 17 58 -2 1 -8 -9 -14
-23z"/>
<path d="M3645 4609 c-10 -30 0 -33 13 -4 6 14 7 25 2 25 -5 0 -12 -9 -15 -21z"/>
<path d="M8015 4559 c-27 -10 -72 -39 -98 -64 -26 -25 -50 -45 -52 -45 -3 0
-29 13 -58 29 -83 47 -148 61 -275 61 -178 0 -304 -41 -380 -124 -54 -59 -64
-85 -65 -168 0 -100 47 -170 151 -222 17 -9 32 -20 32 -24 0 -5 -27 -21 -61
-37 -83 -40 -129 -92 -129 -146 0 -54 22 -90 78 -123 l47 -28 -65 -30 c-36
-16 -75 -38 -87 -50 -54 -51 -50 -138 9 -195 67 -63 150 -88 337 -103 285 -22
482 20 586 125 56 55 75 102 75 181 -1 97 -53 166 -158 209 -74 30 -149 41
-342 50 -155 8 -213 20 -218 47 -6 34 43 51 171 60 138 10 229 28 288 58 60
31 120 89 142 139 17 40 20 67 14 161 l-2 35 65 1 c36 0 71 3 78 8 16 10 17
187 0 204 -16 16 -23 15 -83 -9z m-422 -173 c18 -7 43 -26 57 -41 22 -23 25
-36 25 -95 0 -54 -4 -73 -20 -90 -67 -75 -229 -63 -278 20 -23 39 -22 107 3
148 37 61 141 89 213 58z m-38 -766 c206 -13 235 -26 235 -98 0 -50 -47 -78
-155 -92 -100 -13 -261 3 -314 30 -51 26 -72 77 -46 116 18 29 67 53 105 53
14 1 92 -4 175 -9z"/>
<path d="M8632 4515 c-30 -14 -77 -45 -106 -70 -29 -25 -58 -45 -64 -45 -7 0
-12 26 -14 63 l-3 62 -140 3 c-123 2 -141 0 -152 -15 -16 -21 -19 -857 -3
-897 l10 -26 129 0 c71 0 136 3 145 6 14 5 16 43 16 315 l0 309 36 39 c66 74
166 90 220 36 l24 -24 0 -321 c0 -202 4 -328 10 -341 10 -17 22 -19 143 -19
90 0 137 4 145 12 17 17 17 714 0 770 -16 52 -77 121 -133 147 -67 31 -191 30
-263 -4z"/>
<path d="M6706 4514 c-3 -9 -6 -215 -6 -458 0 -330 3 -445 12 -454 8 -8 54
-12 139 -12 103 0 131 3 143 16 14 14 16 69 16 454 0 241 -3 445 -6 454 -5 14
-28 16 -149 16 -121 0 -144 -2 -149 -16z"/>
<path d="M3575 4429 c-4 -6 -5 -12 -2 -15 2 -3 7 2 10 11 7 17 1 20 -8 4z"/>
<path d="M3550 4385 c-7 -9 -8 -15 -2 -15 5 0 12 7 16 15 3 8 4 15 2 15 -2 0
-9 -7 -16 -15z"/>
<path d="M3526 4344 c-10 -25 1 -29 14 -5 6 12 7 21 1 21 -5 0 -12 -7 -15 -16z"/>
<path d="M6080 3369 c-227 -27 -387 -143 -477 -347 -50 -114 -67 -324 -39
-482 56 -311 287 -511 591 -511 55 0 123 5 150 12 162 40 307 153 375 293 34
71 43 106 32 123 -8 13 -178 53 -224 53 -22 0 -30 -7 -46 -42 -65 -143 -203
-216 -340 -179 -127 35 -184 163 -184 416 0 292 79 425 254 425 58 0 95 -13
132 -48 30 -28 76 -115 76 -143 0 -34 21 -37 170 -24 80 7 146 13 148 14 1 1
2 18 2 40 0 63 -69 189 -140 255 -120 111 -304 166 -480 145z"/>
<path d="M11033 3348 c-7 -8 -12 -252 -16 -645 -5 -555 -4 -635 9 -648 21 -21
251 -22 280 -1 18 14 19 34 22 644 2 566 1 632 -13 646 -13 13 -41 16 -144 16
-91 0 -131 -4 -138 -12z"/>
<path d="M8852 3288 c-6 -7 -16 -76 -22 -153 -6 -77 -14 -143 -16 -147 -3 -5
-34 -8 -69 -8 -97 0 -95 2 -95 -106 0 -107 -5 -101 100 -106 l55 -3 5 -285 c4
-244 7 -290 22 -316 35 -64 108 -104 218 -118 62 -9 267 9 286 25 11 9 14 31
12 98 l-3 86 -89 5 c-81 5 -90 8 -112 33 -24 28 -24 30 -24 253 l0 224 110 0
c98 0 110 2 120 19 14 27 13 164 -2 179 -8 8 -48 12 -115 12 l-103 0 0 148 c0
102 -4 152 -12 160 -17 17 -252 17 -266 0z"/>
<path d="M7125 2986 c-150 -28 -274 -123 -342 -263 l-38 -78 0 -140 0 -141 37
-74 c74 -150 202 -237 379 -259 158 -20 308 23 406 117 57 55 93 101 93 120 0
11 -106 60 -148 68 -26 5 -38 0 -73 -29 -57 -49 -104 -70 -169 -75 -101 -7
-199 64 -216 156 -13 68 -21 67 319 70 354 3 326 -8 307 119 -21 138 -71 238
-156 312 -97 85 -254 123 -399 97z m177 -187 c36 -19 71 -79 76 -129 l5 -50
-162 0 -161 0 0 30 c0 117 140 203 242 149z"/>
<path d="M8273 2985 c-63 -14 -131 -52 -191 -108 -40 -38 -50 -30 -54 43 l-3
55 -145 0 -145 0 -3 -459 c-2 -361 0 -461 10 -468 7 -4 67 -8 133 -8 181 0
165 -32 165 339 l0 307 38 36 c41 41 78 58 123 58 37 0 85 -24 99 -49 6 -13
10 -141 10 -345 0 -311 1 -326 19 -336 25 -13 247 -13 272 0 18 10 19 25 19
381 l0 370 -25 48 c-58 115 -182 167 -322 136z"/>
<path d="M9937 2986 c-57 -16 -146 -75 -182 -122 -41 -54 -54 -45 -57 39 l-3
72 -140 0 -140 0 -3 -459 c-2 -361 0 -461 10 -468 7 -4 67 -8 133 -8 180 0
165 -28 165 310 l0 278 31 32 c56 55 81 63 198 59 l106 -4 3 131 3 132 -32 11
c-37 13 -31 13 -92 -3z"/>
<path d="M10460 2993 c-154 -15 -250 -53 -312 -121 -36 -40 -64 -104 -54 -121
4 -5 32 -15 64 -21 31 -6 83 -15 115 -22 l57 -11 43 46 c49 53 80 67 149 67
44 0 54 -4 85 -35 32 -32 34 -37 31 -92 l-3 -58 -110 -7 c-284 -17 -458 -132
-472 -312 -10 -116 38 -199 143 -248 116 -54 259 -36 375 47 55 39 79 40 79 3
0 -13 7 -34 16 -46 14 -21 23 -22 133 -22 78 0 121 4 129 12 19 19 17 678 -3
744 -34 115 -129 176 -304 193 -57 6 -108 10 -115 9 -6 0 -27 -3 -46 -5z m180
-597 c0 -84 0 -84 -37 -120 -105 -101 -271 -52 -248 73 13 69 118 129 228 130
l57 1 0 -84z"/>
<path d="M1178 2863 c29 -2 74 -2 100 0 26 2 2 3 -53 3 -55 0 -76 -1 -47 -3z"/>
</g>
</svg>
